<svg id="圖層_1" data-name="圖層 1" xmlns="http://www.w3.org/2000/svg" xmlns:xlink="http://www.w3.org/1999/xlink" viewBox="0 0 1920 1080"><defs><style>.cls-1,.cls-4{fill:none;}.cls-2{clip-path:url(#clip-path);}.cls-3{fill:#52e7ff;}.cls-4{stroke:#040000;stroke-linecap:round;stroke-linejoin:round;stroke-width:6.32px;}</style><clipPath id="clip-path"><rect class="cls-1" x="-0.09" y="0.41" width="1920.02" height="1079.59"/></clipPath></defs><g class="cls-2"><path class="cls-3" d="M1989,649.21l.27,0V637.65l-.27,0a17.3,17.3,0,0,1-17.3-17.3h-11.49a17.3,17.3,0,0,1-34.6,0h-11.49a17.3,17.3,0,1,1-34.59,0H1868a17.3,17.3,0,1,1-34.6,0h-11.49a17.3,17.3,0,0,1-34.6,0h-11.49a17.3,17.3,0,0,1-34.6,0h-11.49a17.3,17.3,0,0,1-17.3,17.3v11.54a17.3,17.3,0,0,1,0,34.6v11.53a17.3,17.3,0,0,1,0,34.6v11.53a17.31,17.31,0,0,1,0,34.61v11.53a17.3,17.3,0,0,1,0,34.6v11.53a17.3,17.3,0,0,1,0,34.6v11.54a17.3,17.3,0,0,1,0,34.6V926a17.3,17.3,0,0,1,0,34.6v11.53a17.31,17.31,0,0,1,17.3,17.3h11.49a17.3,17.3,0,1,1,34.6,0h11.49a17.3,17.3,0,0,1,34.6,0h11.49a17.3,17.3,0,1,1,34.6,0h11.49a17.3,17.3,0,1,1,34.59,0h11.49a17.3,17.3,0,0,1,34.6,0h11.49a17.31,17.31,0,0,1,17.3-17.3l.27,0V960.58l-.27,0a17.3,17.3,0,1,1,0-34.6l.27,0V914.45l-.27,0a17.3,17.3,0,1,1,0-34.6l.27,0V868.32l-.27,0a17.3,17.3,0,1,1,0-34.6l.27,0V822.18l-.27,0a17.3,17.3,0,1,1,0-34.6l.27,0V776.05l-.27,0a17.31,17.31,0,0,1,0-34.61l.27,0V729.91l-.27,0a17.3,17.3,0,1,1,0-34.6l.27,0V683.78l-.27,0a17.3,17.3,0,1,1,0-34.6m-45.86,294.1H1758.56V666.51H1943.1Z"/><path class="cls-4" d="M1592.15,735.54c34.47,0,34.47,12.91,68.94,12.91s34.47-12.91,69-12.91,34.47,12.91,69,12.91,34.47-12.91,69-12.91,34.48,12.91,69,12.91"/><path class="cls-4" d="M1592.15,782.52c34.47,0,34.47,12.91,68.94,12.91s34.47-12.91,69-12.91,34.47,12.91,69,12.91,34.47-12.91,69-12.91,34.48,12.91,69,12.91"/><path class="cls-4" d="M1592.15,829.5c34.47,0,34.47,12.91,68.94,12.91s34.47-12.91,69-12.91,34.47,12.91,69,12.91,34.47-12.91,69-12.91,34.48,12.91,69,12.91"/><path class="cls-4" d="M-98.77,211c34.47,0,34.47,12.91,68.94,12.91S4.65,211,39.12,211s34.47,12.91,68.95,12.91S142.54,211,177,211s34.48,12.91,69,12.91"/><path class="cls-4" d="M-98.77,258c34.47,0,34.47,12.91,68.94,12.91S4.65,258,39.12,258s34.47,12.91,68.95,12.91S142.54,258,177,258s34.48,12.91,69,12.91"/><path class="cls-4" d="M-98.77,304.93c34.47,0,34.47,12.91,68.94,12.91s34.48-12.91,68.95-12.91,34.47,12.91,68.95,12.91,34.47-12.91,69-12.91,34.48,12.91,69,12.91"/></g></svg>