<svg id="圖層_1" data-name="圖層 1" xmlns="http://www.w3.org/2000/svg" viewBox="0 0 40 50.01"><defs><style>.cls-1{fill:none;}.cls-1,.cls-2,.cls-3{stroke:#008069;stroke-miterlimit:10;stroke-width:1.8px;}.cls-2{fill:#ffce4a;}.cls-3{fill:#008069;}</style></defs><path class="cls-1" d="M19.91,2h.17A16.53,16.53,0,0,1,36.62,18.57v26a0,0,0,0,1,0,0H3.38a0,0,0,0,1,0,0v-26A16.53,16.53,0,0,1,19.91,2Z"/><rect class="cls-1" x="12.32" y="22.09" width="15.37" height="3.8" rx="1.9"/><rect class="cls-2" x="12.32" y="30.08" width="15.37" height="10.5" rx="2.99"/><path class="cls-3" d="M3.38,44.57H6.8a0,0,0,0,1,0,0v2.84a1.7,1.7,0,0,1-1.7,1.7h0a1.7,1.7,0,0,1-1.7-1.7V44.57A0,0,0,0,1,3.38,44.57Z"/><path class="cls-3" d="M33.2,44.57h3.42a0,0,0,0,1,0,0v2.84a1.7,1.7,0,0,1-1.7,1.7h0a1.7,1.7,0,0,1-1.7-1.7V44.57A0,0,0,0,1,33.2,44.57Z"/><path class="cls-2" d="M.9.9V14a4.7,4.7,0,0,0,4.78,4.62A4.7,4.7,0,0,0,10.45,14,4.78,4.78,0,0,0,20,14a4.78,4.78,0,0,0,9.55,0,4.78,4.78,0,0,0,9.55,0V.9Z"/><line class="cls-2" x1="29.55" y1="14.04" x2="29.55" y2="0.9"/><line class="cls-2" x1="20" y1="14.04" x2="20" y2="0.9"/><line class="cls-2" x1="10.45" y1="14.04" x2="10.45" y2="0.9"/></svg>