<svg id="圖層_1" data-name="圖層 1" xmlns="http://www.w3.org/2000/svg" viewBox="0 0 137.93 46.79"><defs><style>.cls-1{fill:#008169;}.cls-2{fill:#1f1e1c;}.cls-3{fill:#52e7ff;}.cls-4{fill:#ffd24a;}</style></defs><path class="cls-1" d="M24.06,45.91a5,5,0,0,0,5-5v-26a14,14,0,0,0-28,0v26a5,5,0,0,0,5,5Z"/><path class="cls-2" d="M24.06,46.79h-18A5.89,5.89,0,0,1,.17,40.91v-26a14.89,14.89,0,0,1,29.78,0v26a5.89,5.89,0,0,1-5.89,5.88m-9-45A13.14,13.14,0,0,0,1.93,14.89v26A4.13,4.13,0,0,0,6.05,45h18a4.12,4.12,0,0,0,4.12-4.12v-26A13.13,13.13,0,0,0,15.06,1.77"/><path class="cls-3" d="M15.06,28.9a14,14,0,1,0-14-14v14Z"/><path class="cls-2" d="M15.06,29.78h0L.17,29.73V14.89A14.89,14.89,0,1,1,15.06,29.78M1.93,28,15.06,28A13.13,13.13,0,1,0,1.93,14.89Z"/><path class="cls-4" d="M18.31,1.27A13.9,13.9,0,0,0,15.06.88a14.05,14.05,0,0,0-14,14v26a5,5,0,0,0,5,5h1.5v-31A14.07,14.07,0,0,1,18.31,1.27"/><path class="cls-2" d="M7.55,46.79H6.05A5.89,5.89,0,0,1,.17,40.91v-26A14.91,14.91,0,0,1,15.06,0a15.08,15.08,0,0,1,3.46.41.89.89,0,0,1,0,1.72A13.26,13.26,0,0,0,8.44,14.89v31a.88.88,0,0,1-.89.88m7-45A13.13,13.13,0,0,0,1.93,14.89v26A4.13,4.13,0,0,0,6.05,45h.62V14.89A14.91,14.91,0,0,1,14.55,1.78"/><path class="cls-2" d="M41,24.23a1.53,1.53,0,0,1-1.12.46,1.51,1.51,0,0,1-1.11-.46,1.5,1.5,0,0,1-.47-1.13V10.68a1.83,1.83,0,0,1,1.81-1.82h3.38q6.21,0,6.21,5a5.05,5.05,0,0,1-.84,3,4.79,4.79,0,0,1-2.18,1.75,8.29,8.29,0,0,1-3.1.54h-1.9a.19.19,0,0,0-.21.21V23.1A1.53,1.53,0,0,1,41,24.23m.47-7.87a.19.19,0,0,0,.21.21H43.4c2.14,0,3.21-.91,3.21-2.74a2.16,2.16,0,0,0-.81-1.9,4.49,4.49,0,0,0-2.5-.56H41.71a.19.19,0,0,0-.21.21Z"/><path class="cls-2" d="M64.42,22.75a7,7,0,0,1-10.25,0,8.86,8.86,0,0,1-2-6,8.66,8.66,0,0,1,1.94-6,7.16,7.16,0,0,1,10.27,0,8.62,8.62,0,0,1,1.95,6,8.87,8.87,0,0,1-2,6m-7.92-2a3.37,3.37,0,0,0,5.62,0,7,7,0,0,0,1-4,6.71,6.71,0,0,0-1-4,3.3,3.3,0,0,0-2.82-1.45,3.26,3.26,0,0,0-2.81,1.45,6.71,6.71,0,0,0-1,4,6.9,6.9,0,0,0,1,4"/><path class="cls-2" d="M74.61,25A8.16,8.16,0,0,1,70,23.56a1.18,1.18,0,0,1-.55-.92V22.5a1.29,1.29,0,0,1,.36-.9,1.33,1.33,0,0,1,.94-.5.65.65,0,0,1,.19,0,1.6,1.6,0,0,1,.89.27,5.52,5.52,0,0,0,2.91.9,3.07,3.07,0,0,0,1.85-.48,1.58,1.58,0,0,0,.65-1.34,1.39,1.39,0,0,0-.5-1.16A8.6,8.6,0,0,0,75,18.36l-.15-.06-2.13-.9a6.05,6.05,0,0,1-2.28-1.63,3.83,3.83,0,0,1-.91-2.63,4.09,4.09,0,0,1,1.54-3.26A5.88,5.88,0,0,1,75,8.57a7,7,0,0,1,4,1.21,1.05,1.05,0,0,1,.47.86v.1a1.3,1.3,0,0,1-.31.86,1.22,1.22,0,0,1-.85.46l-.21,0a1.62,1.62,0,0,1-.8-.21A4.67,4.67,0,0,0,75,11.29a2.85,2.85,0,0,0-1.67.43A1.44,1.44,0,0,0,72.69,13a1.34,1.34,0,0,0,.17.68,1.6,1.6,0,0,0,.55.55,6.63,6.63,0,0,0,.69.39A8.87,8.87,0,0,0,75,15l.15.06,2.06.88a5.71,5.71,0,0,1,2.38,1.66,4.1,4.1,0,0,1,.82,2.64,4.35,4.35,0,0,1-1.58,3.4A6.23,6.23,0,0,1,74.61,25"/><path class="cls-2" d="M89.07,24.23a1.52,1.52,0,0,1-1.12.46,1.48,1.48,0,0,1-1.11-.46,1.52,1.52,0,0,1-.46-1.13V11.7a.19.19,0,0,0-.21-.21H83.24a1.26,1.26,0,0,1-.93-.38,1.33,1.33,0,0,1,0-1.86,1.27,1.27,0,0,1,.93-.39H92.7a1.32,1.32,0,1,1,0,2.63h-3a.19.19,0,0,0-.21.21V23.1a1.52,1.52,0,0,1-.46,1.13"/><path class="cls-2" d="M107.82,22.75a7,7,0,0,1-10.25,0,8.82,8.82,0,0,1-2-6,8.62,8.62,0,0,1,2-6,7.16,7.16,0,0,1,10.27,0,8.66,8.66,0,0,1,1.94,6,8.86,8.86,0,0,1-2,6m-7.93-2a3.37,3.37,0,0,0,5.62,0,6.9,6.9,0,0,0,1-4,6.64,6.64,0,0,0-1-4,3.46,3.46,0,0,0-5.63,0,6.71,6.71,0,0,0-1,4,7,7,0,0,0,1,4"/><path class="cls-2" d="M124.56,23.17a.94.94,0,0,1,.15.5,1.09,1.09,0,0,1-.15.52,1,1,0,0,1-.9.5,2.89,2.89,0,0,1-1.51-.42,2.8,2.8,0,0,1-1.08-1.13l-2.31-4.26a.35.35,0,0,0-.32-.18h-1.77a.19.19,0,0,0-.21.21V23.1a1.59,1.59,0,0,1-1.59,1.59,1.51,1.51,0,0,1-1.11-.46,1.5,1.5,0,0,1-.47-1.13V10.68a1.83,1.83,0,0,1,1.81-1.82h3.7c4,0,6,1.6,6,4.81a4.43,4.43,0,0,1-2.82,4.46c-.13.06-.15.14-.08.25Zm-7.89-11.8a.19.19,0,0,0-.21.21V16a.19.19,0,0,0,.21.21h1.84a3.67,3.67,0,0,0,2.33-.64,2.22,2.22,0,0,0,.82-1.88,2,2,0,0,0-.78-1.78,4.34,4.34,0,0,0-2.37-.52Z"/><path class="cls-2" d="M133.29,24.23a1.59,1.59,0,0,1-2.24,0,1.53,1.53,0,0,1-.47-1.13v-4a1,1,0,0,0-.08-.39l-4-8.31a1.13,1.13,0,0,1-.1-.46,1,1,0,0,1,.17-.57,1,1,0,0,1,.89-.5,2.44,2.44,0,0,1,1.4.43,2.5,2.5,0,0,1,.92,1.14l1,2.3c.53,1.4,1,2.56,1.34,3.46,0,0,0,0,.06,0s.05,0,.06,0c.88-2.16,1.35-3.31,1.4-3.46l1-2.34a2.33,2.33,0,0,1,.9-1.11,2.4,2.4,0,0,1,1.36-.42,1,1,0,0,1,.9.48,1.1,1.1,0,0,1,.16.57,1,1,0,0,1-.12.44l-4,8.35a.85.85,0,0,0-.08.39v4a1.53,1.53,0,0,1-.47,1.13"/><path class="cls-2" d="M41.26,31.68a2.5,2.5,0,0,1,0,5h-2v2.77h-1V31.68Zm-2,4.13H41a1.64,1.64,0,1,0,0-3.27H39.29Z"/><path class="cls-2" d="M44.75,36.54c0-1.86,1-3,2.67-3s2.67,1.14,2.67,3-1,3-2.67,3-2.67-1.14-2.67-3m4.38,0c0-1.37-.62-2.16-1.71-2.16s-1.72.79-1.72,2.16.62,2.17,1.72,2.17,1.71-.8,1.71-2.17"/><path class="cls-2" d="M53.56,33.54c1.22,0,2.06.6,2.18,1.56h-.91c-.12-.47-.57-.77-1.27-.77s-1.23.35-1.23.86.32.65,1,.81l.89.22c1.09.26,1.62.74,1.62,1.57,0,1-1,1.75-2.33,1.75s-2.17-.62-2.27-1.58h1a1.27,1.27,0,0,0,1.36.8c.78,0,1.33-.37,1.33-.9s-.3-.67-.91-.82l-1-.24c-1.08-.26-1.58-.73-1.58-1.57s.93-1.69,2.16-1.69"/><path class="cls-2" d="M58.55,32.15v1.49h1.29v.78H58.55V37.7c0,.68.26,1,.86,1a3.1,3.1,0,0,0,.43,0v.78a3.29,3.29,0,0,1-.54,0c-1.19,0-1.67-.44-1.67-1.55V34.42h-.94v-.78h.94V32.15Z"/><polygon class="cls-2" points="66.6 39.44 66.6 36.1 63.85 31.68 64.95 31.68 67.04 35.13 67.13 35.13 69.22 31.68 70.32 31.68 67.57 36.1 67.57 39.44 66.6 39.44"/><path class="cls-2" d="M70.36,36.54c0-1.86,1-3,2.67-3s2.67,1.14,2.67,3-1,3-2.67,3-2.67-1.14-2.67-3m4.38,0c0-1.37-.61-2.16-1.71-2.16s-1.72.79-1.72,2.16.62,2.17,1.72,2.17,1.71-.8,1.71-2.17"/><path class="cls-2" d="M81.84,39.44H81v-.91h-.08a1.8,1.8,0,0,1-1.8,1c-1.3,0-2-.77-2-2.14V33.64H78v3.53c0,1,.39,1.53,1.31,1.53a1.46,1.46,0,0,0,1.58-1.63V33.64h.93Z"/><path class="cls-2" d="M83.57,33.65h.88v.85h.09a1.62,1.62,0,0,1,1.61-1,3.23,3.23,0,0,1,.46,0v.92a4.06,4.06,0,0,0-.59-.05,1.42,1.42,0,0,0-1.52,1.41v3.59h-.93Z"/><path class="cls-2" d="M91.59,37.41c.12.81.9,1.33,2,1.33s1.81-.56,1.81-1.33-.48-1.08-1.55-1.35l-1-.26c-1.4-.35-2-1-2-2.09,0-1.32,1.1-2.21,2.74-2.21a2.47,2.47,0,0,1,2.7,2.15h-1a1.59,1.59,0,0,0-1.76-1.27c-1,0-1.71.51-1.71,1.3,0,.6.42,1,1.49,1.23l.81.21c1.61.41,2.25,1,2.25,2.17,0,1.42-1.12,2.33-2.89,2.33s-2.78-.87-2.88-2.21Z"/><path class="cls-2" d="M99.19,32.15v1.49h1.29v.78H99.19V37.7c0,.68.26,1,.86,1a3.1,3.1,0,0,0,.43,0v.78a3.29,3.29,0,0,1-.54,0c-1.2,0-1.67-.44-1.67-1.55V34.42h-.94v-.78h.94V32.15Z"/><path class="cls-2" d="M101.5,36.54c0-1.86,1-3,2.68-3s2.67,1.14,2.67,3-1,3-2.67,3-2.68-1.14-2.68-3m4.39,0c0-1.37-.62-2.16-1.71-2.16s-1.72.79-1.72,2.16.62,2.17,1.72,2.17,1.71-.8,1.71-2.17"/><path class="cls-2" d="M108.29,33.65h.89v.85h.08a1.62,1.62,0,0,1,1.61-1,3.23,3.23,0,0,1,.46,0v.92a3.93,3.93,0,0,0-.59-.05,1.42,1.42,0,0,0-1.52,1.41v3.59h-.93Z"/><path class="cls-2" d="M112.56,41.5v-.79a2.47,2.47,0,0,0,.39,0c.53,0,.82-.25,1.07-1l.1-.35L112,33.64h1l1.59,4.77h.09l1.58-4.77h1L115,39.79c-.49,1.35-.95,1.74-2,1.74a3.07,3.07,0,0,1-.42,0"/></svg>