<svg id="圖層_1" data-name="圖層 1" xmlns="http://www.w3.org/2000/svg" viewBox="0 0 127 192"><defs><style>.cls-1{fill:#008169;}.cls-2{fill:#1f1e1c;}.cls-3{fill:#52e7ff;}.cls-4{fill:#ffd24a;}</style></defs><path class="cls-1" d="M89.06,130.79a14.28,14.28,0,0,0,14.28-14.29V42.21a40,40,0,0,0-80,0V116.5a14.29,14.29,0,0,0,14.29,14.29Z"/><path class="cls-2" d="M89.06,133.31H37.63A16.83,16.83,0,0,1,20.82,116.5V42.21a42.52,42.52,0,0,1,85,0V116.5a16.83,16.83,0,0,1-16.8,16.81M63.34,4.73A37.53,37.53,0,0,0,25.86,42.21V116.5a11.78,11.78,0,0,0,11.77,11.77H89.06a11.78,11.78,0,0,0,11.76-11.77V42.21A37.52,37.52,0,0,0,63.34,4.73"/><path class="cls-3" d="M63.34,82.21a40,40,0,1,0-40-40V82.07Z"/><path class="cls-2" d="M63.34,84.73h0l-42.51-.15V42.21A42.52,42.52,0,1,1,63.34,84.73M25.86,79.56l37.49.13A37.48,37.48,0,1,0,25.86,42.21Z"/><path class="cls-4" d="M72.63,3.32a39.57,39.57,0,0,0-9.29-1.11,40.12,40.12,0,0,0-40,40V116.5a14.29,14.29,0,0,0,14.29,14.29h4.28V42.21A40.16,40.16,0,0,1,72.63,3.32"/><path class="cls-2" d="M41.91,133.31H37.63A16.83,16.83,0,0,1,20.82,116.5V42.21A42.46,42.46,0,0,1,73.22.87a2.52,2.52,0,0,1,0,4.9A37.87,37.87,0,0,0,44.43,42.21v88.58a2.52,2.52,0,0,1-2.52,2.52m20-128.55a37.53,37.53,0,0,0-36,37.45V116.5a11.78,11.78,0,0,0,11.77,11.77h1.76V42.21a42.58,42.58,0,0,1,9.33-26.49,43.09,43.09,0,0,1,13.16-11"/><path class="cls-2" d="M3,170.37A2,2,0,0,1,1.6,171a2,2,0,0,1-1.43-.59,2,2,0,0,1-.61-1.45V153a2.24,2.24,0,0,1,.69-1.65,2.24,2.24,0,0,1,1.64-.68H6.22q7.95,0,7.94,6.36a6.42,6.42,0,0,1-1.07,3.77,6.08,6.08,0,0,1-2.79,2.25,10.62,10.62,0,0,1-4,.69H3.9a.24.24,0,0,0-.27.27v4.89a2,2,0,0,1-.6,1.45m.6-10.08a.24.24,0,0,0,.27.27H6.06q4.13,0,4.12-3.51a2.75,2.75,0,0,0-1-2.43,5.73,5.73,0,0,0-3.21-.72h-2a.24.24,0,0,0-.27.26Z"/><path class="cls-2" d="M33,168.47a8.3,8.3,0,0,1-6.57,2.86,8.27,8.27,0,0,1-6.56-2.86,11.32,11.32,0,0,1-2.5-7.73,11.12,11.12,0,0,1,2.48-7.65,8.41,8.41,0,0,1,6.58-2.78A8.41,8.41,0,0,1,33,153.09a11.08,11.08,0,0,1,2.49,7.65,11.37,11.37,0,0,1-2.5,7.73M22.84,165.9a4.31,4.31,0,0,0,7.19,0,8.89,8.89,0,0,0,1.34-5.16A8.59,8.59,0,0,0,30,155.65a4.41,4.41,0,0,0-7.2,0,8.59,8.59,0,0,0-1.33,5.09,8.89,8.89,0,0,0,1.34,5.16"/><path class="cls-2" d="M46,171.33a10.54,10.54,0,0,1-6-1.82,1.54,1.54,0,0,1-.7-1.18v-.18a1.7,1.7,0,0,1,.46-1.15,1.67,1.67,0,0,1,1.2-.64l.24,0a2.07,2.07,0,0,1,1.15.35,7.14,7.14,0,0,0,3.72,1.15,4,4,0,0,0,2.38-.62,2,2,0,0,0,.83-1.71,1.77,1.77,0,0,0-.64-1.48,11.14,11.14,0,0,0-2.2-1.17l-.18-.08-2.73-1.15a7.93,7.93,0,0,1-2.93-2.08,5,5,0,0,1-1.16-3.37,5.23,5.23,0,0,1,2-4.18,7.48,7.48,0,0,1,5-1.68,9,9,0,0,1,5.11,1.55,1.37,1.37,0,0,1,.61,1.1v.13a1.66,1.66,0,0,1-.4,1.1,1.53,1.53,0,0,1-1.09.59,1.24,1.24,0,0,1-.27,0,2,2,0,0,1-1-.27,6,6,0,0,0-2.94-.75,3.71,3.71,0,0,0-2.14.56,1.83,1.83,0,0,0-.8,1.58,1.67,1.67,0,0,0,.22.88,2.11,2.11,0,0,0,.7.7,7.82,7.82,0,0,0,.89.5,11.74,11.74,0,0,0,1.19.49l.18.08,2.65,1.12a7.5,7.5,0,0,1,3.05,2.12,5.29,5.29,0,0,1,1,3.39,5.52,5.52,0,0,1-2,4.35A8,8,0,0,1,46,171.33"/><path class="cls-2" d="M64.55,170.37a2,2,0,0,1-1.43.59,2,2,0,0,1-2-2V154.33a.24.24,0,0,0-.27-.27H57.09a1.69,1.69,0,1,1,0-3.37H69.2a1.69,1.69,0,0,1,0,3.37H65.4a.24.24,0,0,0-.27.27v14.59a2,2,0,0,1-.58,1.45"/><path class="cls-2" d="M88.56,168.47a9,9,0,0,1-13.13,0,11.32,11.32,0,0,1-2.5-7.73,11.08,11.08,0,0,1,2.49-7.65,9.17,9.17,0,0,1,13.15,0,11.08,11.08,0,0,1,2.49,7.65,11.37,11.37,0,0,1-2.5,7.73M78.41,165.9a4.31,4.31,0,0,0,7.19,0,8.89,8.89,0,0,0,1.34-5.16,8.59,8.59,0,0,0-1.34-5.09,4.41,4.41,0,0,0-7.2,0,8.59,8.59,0,0,0-1.33,5.09,8.89,8.89,0,0,0,1.34,5.16"/><path class="cls-2" d="M110,169a1.34,1.34,0,0,1,.19.64,1.45,1.45,0,0,1-.19.67,1.23,1.23,0,0,1-1.15.64,3.75,3.75,0,0,1-3.32-2l-3-5.46a.44.44,0,0,0-.4-.24H99.89a.24.24,0,0,0-.27.27v5.37a2,2,0,1,1-4.06,0V153a2.24,2.24,0,0,1,.68-1.64,2.28,2.28,0,0,1,1.65-.68h4.73q7.62,0,7.62,6.15a5.69,5.69,0,0,1-3.61,5.72c-.16.07-.2.18-.11.32ZM99.89,153.9a.24.24,0,0,0-.27.26v5.65a.24.24,0,0,0,.27.26h2.36a4.79,4.79,0,0,0,3-.81,2.9,2.9,0,0,0,1-2.42,2.54,2.54,0,0,0-1-2.28,5.58,5.58,0,0,0-3-.66Z"/><path class="cls-2" d="M121.17,170.37a2,2,0,0,1-3.46-1.45v-5.13a1.25,1.25,0,0,0-.1-.51l-5.06-10.64a1.4,1.4,0,0,1-.13-.59,1.37,1.37,0,0,1,.21-.72,1.28,1.28,0,0,1,1.15-.64,3.06,3.06,0,0,1,1.79.55,3.17,3.17,0,0,1,1.18,1.45l1.23,2.95c.68,1.8,1.25,3.27,1.71,4.43a.11.11,0,0,0,.08,0,.1.1,0,0,0,.08,0q1.68-4.14,1.79-4.43l1.23-3a3,3,0,0,1,1.15-1.42,3.15,3.15,0,0,1,1.74-.53,1.29,1.29,0,0,1,1.15.61,1.43,1.43,0,0,1,.21.73,1.17,1.17,0,0,1-.16.56l-5.08,10.69a1.25,1.25,0,0,0-.1.51v5.13a1.93,1.93,0,0,1-.61,1.45"/><path class="cls-2" d="M16.58,178.5a3.2,3.2,0,0,1,0,6.39h-2.5v3.54H12.82V178.5Zm-2.52,5.28h2.19a2.09,2.09,0,1,0,0-4.18H14.06Z"/><path class="cls-2" d="M21,184.72c0-2.39,1.31-3.84,3.42-3.84s3.43,1.45,3.43,3.84-1.31,3.84-3.43,3.84S21,187.1,21,184.72m5.62,0c0-1.76-.79-2.77-2.2-2.77s-2.19,1-2.19,2.77.79,2.77,2.19,2.77,2.2-1,2.2-2.77"/><path class="cls-2" d="M32.33,180.88c1.56,0,2.64.77,2.8,2H34a1.52,1.52,0,0,0-1.63-1c-.88,0-1.57.45-1.57,1.11,0,.51.41.83,1.29,1l1.14.28c1.4.33,2.07.94,2.07,2,0,1.33-1.29,2.24-3,2.24s-2.79-.79-2.92-2h1.22a1.64,1.64,0,0,0,1.74,1c1,0,1.71-.47,1.71-1.15,0-.51-.38-.86-1.18-1l-1.27-.31c-1.39-.34-2-.94-2-2,0-1.23,1.19-2.16,2.76-2.16"/><path class="cls-2" d="M38.73,179.09V181h1.65v1H38.73v4.2c0,.87.33,1.25,1.1,1.25a5.21,5.21,0,0,0,.55,0v1a4.14,4.14,0,0,1-.7.06c-1.53,0-2.14-.56-2.14-2V182h-1.2v-1h1.2v-1.92Z"/><polygon class="cls-2" points="49.03 188.43 49.03 184.16 45.51 178.5 46.92 178.5 49.59 182.91 49.7 182.91 52.38 178.5 53.79 178.5 50.27 184.16 50.27 188.43 49.03 188.43"/><path class="cls-2" d="M53.84,184.72c0-2.39,1.31-3.84,3.43-3.84s3.42,1.45,3.42,3.84-1.31,3.84-3.42,3.84-3.43-1.46-3.43-3.84m5.62,0c0-1.76-.79-2.77-2.19-2.77s-2.2,1-2.2,2.77.79,2.77,2.2,2.77,2.19-1,2.19-2.77"/><path class="cls-2" d="M68.54,188.43H67.41v-1.16H67.3a2.32,2.32,0,0,1-2.3,1.29c-1.66,0-2.53-1-2.53-2.74V181h1.19v4.52c0,1.33.49,1.95,1.67,1.95a1.87,1.87,0,0,0,2-2.08V181h1.18Z"/><path class="cls-2" d="M70.77,181H71.9v1.1H72a2.07,2.07,0,0,1,2.06-1.23,5.28,5.28,0,0,1,.59,0v1.19a4.58,4.58,0,0,0-.76-.07,1.82,1.82,0,0,0-2,1.8v4.6H70.77Z"/><path class="cls-2" d="M81,185.83c.15,1,1.14,1.7,2.55,1.7s2.32-.72,2.32-1.7-.62-1.39-2-1.73l-1.27-.33c-1.8-.45-2.57-1.27-2.57-2.68,0-1.68,1.41-2.83,3.51-2.83,1.92,0,3.35,1.15,3.45,2.75H85.8a2,2,0,0,0-2.26-1.62c-1.32,0-2.19.66-2.19,1.66,0,.78.54,1.23,1.91,1.58l1,.27c2.06.52,2.89,1.32,2.89,2.78,0,1.82-1.44,3-3.71,3-2.11,0-3.56-1.11-3.69-2.83Z"/><path class="cls-2" d="M90.77,179.09V181h1.65v1H90.77v4.2c0,.87.33,1.25,1.1,1.25a5.21,5.21,0,0,0,.55,0v1a4,4,0,0,1-.7.06c-1.52,0-2.14-.56-2.14-2V182H88.39v-1h1.19v-1.92Z"/><path class="cls-2" d="M93.73,184.72c0-2.39,1.31-3.84,3.42-3.84s3.42,1.45,3.42,3.84-1.31,3.84-3.42,3.84-3.42-1.46-3.42-3.84m5.62,0c0-1.76-.79-2.77-2.2-2.77S95,183,95,184.72s.79,2.77,2.19,2.77,2.2-1,2.2-2.77"/><path class="cls-2" d="M102.43,181h1.13v1.1h.11a2.07,2.07,0,0,1,2-1.23,5.47,5.47,0,0,1,.6,0v1.19a4.58,4.58,0,0,0-.76-.07,1.82,1.82,0,0,0-2,1.8v4.6h-1.18Z"/><path class="cls-2" d="M107.9,191.07v-1a2.56,2.56,0,0,0,.49,0c.68,0,1.06-.33,1.36-1.22l.14-.44L107.15,181h1.28l2,6.11h.11l2-6.11h1.26L111,188.88c-.64,1.72-1.23,2.23-2.54,2.23a3.15,3.15,0,0,1-.53,0"/></svg>