<svg id="圖層_1" data-name="圖層 1" xmlns="http://www.w3.org/2000/svg" viewBox="0 0 90.75 110.74"><defs><style>.cls-1{fill:#008069;}.cls-2,.cls-3{fill:#ffce4a;}.cls-3{opacity:0;}</style></defs><path class="cls-1" d="M45.37,64.92A32.46,32.46,0,1,1,77.94,32.46,32.55,32.55,0,0,1,45.37,64.92Zm0-62A29.54,29.54,0,1,0,75,32.46,29.63,29.63,0,0,0,45.37,2.92Z"/><path class="cls-2" d="M33.19,97.3A1.29,1.29,0,0,1,31.9,96V77.16a1.29,1.29,0,1,1,2.57,0V96A1.28,1.28,0,0,1,33.19,97.3Z"/><path class="cls-2" d="M20,97.3A1.28,1.28,0,0,1,18.72,96V77.16a1.28,1.28,0,1,1,2.56,0V96A1.28,1.28,0,0,1,20,97.3Z"/><path class="cls-2" d="M26.59,97.3A1.28,1.28,0,0,1,25.31,96V81a1.29,1.29,0,1,1,2.57,0V96A1.29,1.29,0,0,1,26.59,97.3Z"/><path class="cls-2" d="M39.78,97.3A1.28,1.28,0,0,1,38.5,96V70.26a1.28,1.28,0,1,1,2.56,0V96A1.28,1.28,0,0,1,39.78,97.3Z"/><path class="cls-2" d="M46.37,97.3A1.28,1.28,0,0,1,45.09,96V75.86a1.29,1.29,0,0,1,2.57,0V96A1.29,1.29,0,0,1,46.37,97.3Z"/><path class="cls-2" d="M53,97.3A1.29,1.29,0,0,1,51.68,96V82.76a1.29,1.29,0,0,1,2.57,0V96A1.29,1.29,0,0,1,53,97.3Z"/><path class="cls-2" d="M59.56,97.3A1.28,1.28,0,0,1,58.28,96V81a1.28,1.28,0,1,1,2.56,0V96A1.28,1.28,0,0,1,59.56,97.3Z"/><path class="cls-2" d="M66.15,97.3A1.28,1.28,0,0,1,64.87,96V77.16a1.29,1.29,0,1,1,2.57,0V96A1.29,1.29,0,0,1,66.15,97.3Z"/><path class="cls-2" d="M72.75,97.3A1.29,1.29,0,0,1,71.46,96v-24a1.29,1.29,0,1,1,2.57,0V96A1.28,1.28,0,0,1,72.75,97.3Z"/><path class="cls-2" d="M55.85,34.44,43.64,46.61a2.81,2.81,0,0,1-2,.82,2.65,2.65,0,0,1-1.07-.21,2.79,2.79,0,0,1-1.74-2.58V20.28a2.82,2.82,0,0,1,4.8-2L55.85,30.48A2.79,2.79,0,0,1,55.85,34.44Z"/><path class="cls-2" d="M41.65,48.9A4.36,4.36,0,0,1,40,48.58a4.26,4.26,0,0,1-2.64-3.95V20.28a4.28,4.28,0,0,1,7.31-3L56.89,29.44a4.27,4.27,0,0,1,0,6h0L44.68,47.66A4.29,4.29,0,0,1,41.65,48.9Zm0-29.95a1.34,1.34,0,0,0-1.34,1.33V44.63a1.32,1.32,0,0,0,.82,1.23,1.36,1.36,0,0,0,1.47-.29L54.82,33.4a1.33,1.33,0,0,0,.39-.94,1.29,1.29,0,0,0-.4-.94L42.6,19.34A1.37,1.37,0,0,0,41.65,19Zm14.2,15.49h0Z"/><rect class="cls-3" x="2.23" y="98.07" width="85.71" height="15.34"/></svg>