<svg id="圖層_1" data-name="圖層 1" xmlns="http://www.w3.org/2000/svg" viewBox="0 0 40 34"><defs><style>.cls-1,.cls-2{fill:#fff;stroke-linecap:round;stroke-linejoin:round;}.cls-1{stroke:#008069;stroke-width:1.8px;}.cls-2{stroke:#fff;stroke-width:3.33px;}.cls-3{fill:#ffce4a;}</style></defs><rect class="cls-1" x="9.15" y="0.9" width="29.95" height="21.61" rx="2.72"/><rect class="cls-2" x="5.41" y="5.81" width="29.95" height="21.61" rx="2.72"/><rect class="cls-1" x="5.41" y="5.81" width="29.95" height="21.61" rx="2.72"/><rect class="cls-2" x="1.66" y="10.72" width="29.95" height="21.61" rx="2.72"/><rect class="cls-1" x="1.66" y="10.72" width="29.95" height="21.61" rx="2.72"/><path class="cls-3" d="M16.46,28.89A4.16,4.16,0,0,1,13,27.31a.87.87,0,0,1-.2-.55,1.11,1.11,0,0,1,0-.19,1,1,0,0,1,.4-.66.91.91,0,0,1,.49-.15h.19a1.1,1.1,0,0,1,.62.38,2.18,2.18,0,0,0,1.7.77,1.83,1.83,0,0,0,1.56-.68,3.79,3.79,0,0,0,.5-2.23V15.32a1.13,1.13,0,0,1,.32-.81,1,1,0,0,1,.77-.34,1,1,0,0,1,.77.34,1.13,1.13,0,0,1,.32.81v8.91a6.69,6.69,0,0,1-.4,2.37,3.52,3.52,0,0,1-1.33,1.65A3.86,3.86,0,0,1,16.46,28.89Z"/></svg>