<svg id="圖層_1" data-name="圖層 1" xmlns="http://www.w3.org/2000/svg" viewBox="0 0 254.82 400.72"><defs><style>.cls-1,.cls-2{fill:#008169;}.cls-2{font-size:16px;font-family:SourceHanSansTW-Light-B5pc-H, Source Han Sans TW;}</style></defs><path class="cls-1" d="M46.05,188.32H36v-6H63.29v6H53.18V218H46.05Z"/><path class="cls-1" d="M73.73,182.35h8.38L93.57,218H86.11l-2.51-9.15H72.05L69.55,218H62.33Zm-.14,21h8.47L81,199.44c-1.1-3.71-2.07-7.8-3.08-11.65h-.24c-.91,3.9-2,7.94-3,11.65Z"/><path class="cls-1" d="M97.76,182.35h7.12V218H97.76Z"/><path class="cls-1" d="M110.18,182.35h7.22l2.84,17.42c.53,3.76,1.11,7.51,1.63,11.37h.2c.72-3.86,1.49-7.66,2.26-11.37l4.14-17.42h6.11l4.1,17.42c.77,3.66,1.49,7.51,2.26,11.37h.24c.53-3.86,1.06-7.66,1.59-11.37l2.84-17.42h6.74L145.75,218h-8.86l-4-17.62c-.58-2.79-1.11-5.54-1.54-8.28h-.19c-.49,2.74-1,5.49-1.54,8.28L125.73,218H117Z"/><path class="cls-1" d="M164.53,182.35h8.37L184.36,218H176.9l-2.5-9.15H162.84l-2.5,9.15h-7.22Zm-.15,21h8.48l-1.06-3.9c-1.11-3.71-2.07-7.8-3.08-11.65h-.25c-.91,3.9-2,7.94-3,11.65Z"/><path class="cls-1" d="M188.55,182.35h7.27l10.35,19,3.56,7.71H210c-.34-3.71-.91-8.43-.91-12.47V182.35h6.74V218h-7.22L198.27,199l-3.61-7.66h-.24c.34,3.85.87,8.33.87,12.42V218h-6.74Z"/><path class="cls-1" d="M204.46,400.36H50.36A50.41,50.41,0,0,1,0,350V127.41a127.41,127.41,0,0,1,254.82,0V350a50.41,50.41,0,0,1-50.36,50.35M127.41,15.1A112.43,112.43,0,0,0,15.1,127.41V350a35.29,35.29,0,0,0,35.26,35.25h154.1A35.29,35.29,0,0,0,239.72,350V127.41A112.43,112.43,0,0,0,127.41,15.1"/><text class="cls-2" transform="translate(88.35 247.99)">Plane V0.1</text></svg>