<svg id="圖層_1" data-name="圖層 1" xmlns="http://www.w3.org/2000/svg" viewBox="0 0 452.82 400.36"><defs><style>.cls-1{fill:#008169;}</style></defs><path class="cls-1" d="M335.14,277.91l6.83,1,52-56.49s1.67-2,6.36-4.14h0c9.45-.14,18.58-.46,26.48-1.06,14.95-1.13,25.51-4.22,25.51-7.34h0c0-3.11-10.56-6.2-25.51-7.34-7.9-.59-17-.92-26.48-1.06h0c-4.69-2.14-6.36-4.14-6.36-4.14l-52-56.49-6.83,1,33,59.67h0c-20,.33-36.44,1-39.1,1-1.78,0-8.56,1.1-15.5,2.47l-13-17.8h-4l2.86,21.09h0c-2,.62-3.26,1.16-3.26,1.54s1.25.93,3.26,1.54h0l-2.86,21.09h4l13-17.79c6.94,1.37,13.72,2.46,15.5,2.46,2.66,0,19.07.69,39.1,1h0Z"/><path class="cls-1" d="M342.16,279.47l-7.81-1.18,32.91-59.57c-12.83-.22-24.23-.59-31.1-.81-3.76-.12-6.24-.2-7.14-.2-1.76,0-8.16-1-15.29-2.41L300.79,233H296l2.88-21.24c-2.67-.84-3.2-1.34-3.2-1.89s.53-1,3.2-1.89L296,186.78h4.84l12.94,17.75c7.13-1.41,13.53-2.42,15.29-2.42.9,0,3.4-.08,7.18-.2,6.87-.22,18.25-.58,31.06-.8l-32.91-59.58,7.81-1.18.18.2,52,56.48s1.68,1.95,6.1,4c10.22.16,19.09.51,26.38,1.06,12.93,1,26,3.79,26,7.84s-13,6.86-26,7.84c-7.26.55-16.14.91-26.38,1.06-4.42,2-6.07,3.95-6.08,4Zm-6.24-2,5.86.88,51.86-56.29c.05-.06,1.78-2.09,6.51-4.25l.18.39v-.44c10.28-.15,19.18-.51,26.46-1.06,15.67-1.19,25-4.41,25-6.84s-9.37-5.65-25-6.84c-7.3-.55-16.2-.91-26.46-1.06v-.43l-.18.39c-4.73-2.16-6.46-4.19-6.53-4.28l-51.84-56.27-5.86.88,32.62,59-.43.24v.5c-13.14.22-24.87.6-31.88.82-3.79.12-6.3.2-7.22.2-1.7,0-8.33,1.06-15.41,2.46l-.31.06-13-17.85H297.1l2.72,20.09h2.91l-3.2,1a12.83,12.83,0,0,0-2.76,1.06,12.83,12.83,0,0,0,2.76,1.06l3.2,1h-2.91L297.1,232h3.18l13-17.85.31.07c7.09,1.39,13.71,2.45,15.41,2.45.92,0,3.41.08,7.17.2,7,.23,18.77.61,31.94.82v.52l.42.22Z"/><rect class="cls-1" y="202.41" width="244.4" height="15"/></svg>