<svg id="圖層_1" data-name="圖層 1" xmlns="http://www.w3.org/2000/svg" viewBox="0 0 154.53 155.75"><defs><style>.cls-1{fill:none;stroke:#000;stroke-miterlimit:10;}.cls-2{font-size:29.38px;fill:#ffd24a;font-family:SourceHanSansTW-Bold-B5pc-H, Source Han Sans TW;}.cls-3{letter-spacing:-0.01em;}</style></defs><polygon points="151 75.48 144.16 86.33 147.34 98.76 137.46 106.96 136.62 119.76 124.7 124.5 119.96 136.42 107.16 137.26 98.97 147.13 86.53 143.96 75.68 150.8 64.83 143.96 52.4 147.13 44.21 137.26 31.41 136.42 26.66 124.5 14.74 119.76 13.9 106.96 4.03 98.76 7.21 86.33 0.36 75.48 7.21 64.63 4.03 52.2 13.9 44.01 14.74 31.2 26.66 26.46 31.41 14.54 44.21 13.7 52.4 3.83 64.83 7 75.68 0.16 86.53 7 98.97 3.83 107.16 13.7 119.96 14.54 124.7 26.46 136.62 31.2 137.47 44.01 147.34 52.2 144.16 64.63 151 75.48"/><polygon class="cls-1" points="153.6 79.99 146.75 90.84 149.93 103.28 140.06 111.47 139.22 124.27 127.29 129.01 122.55 140.93 109.75 141.78 101.56 151.65 89.13 148.47 78.28 155.31 67.42 148.47 54.99 151.65 46.8 141.77 34 140.93 29.26 129.01 17.33 124.27 16.49 111.47 6.62 103.28 9.8 90.84 2.95 79.99 9.8 69.14 6.62 56.71 16.49 48.52 17.34 35.72 29.26 30.98 34 19.05 46.8 18.21 54.99 8.34 67.42 11.52 78.28 4.67 89.13 11.52 101.56 8.34 109.75 18.21 122.55 19.05 127.29 30.98 139.22 35.72 140.06 48.52 149.93 56.71 146.75 69.14 153.6 79.99"/><text class="cls-2" transform="translate(31.02 113.35) rotate(-27.48)">BON<tspan class="cls-3" x="64.64" y="0">U</tspan><tspan x="86.27" y="0">S!</tspan></text></svg>