<?xml version="1.0" encoding="utf-8"?>
<!-- Generator: Adobe Illustrator 25.4.1, SVG Export Plug-In . SVG Version: 6.00 Build 0)  -->
<svg version="1.1" id="圖層_1" xmlns="http://www.w3.org/2000/svg" xmlns:xlink="http://www.w3.org/1999/xlink" x="0px" y="0px"
	 viewBox="0 0 254.8 400.7" style="enable-background:new 0 0 254.8 400.7;" xml:space="preserve">
<style type="text/css">
	.st0{fill:#008169;}
	.st1{font-family:'SourceHanSansTW-Light-B5pc-H';}
	.st2{font-size:16px;}
</style>
<path class="st0" d="M46,188.3H36v-6h27.3v6H53.2V218H46V188.3z"/>
<path class="st0" d="M73.7,182.4h8.4L93.6,218h-7.5l-2.5-9.1H72.1l-2.5,9.1h-7.2L73.7,182.4z M73.6,203.4h8.5l-1.1-3.9
	c-1.1-3.7-2.1-7.8-3.1-11.6h-0.2c-0.9,3.9-2,7.9-3,11.6L73.6,203.4z"/>
<path class="st0" d="M97.8,182.4h7.1V218h-7.1V182.4z"/>
<path class="st0" d="M110.2,182.4h7.2l2.8,17.4c0.5,3.8,1.1,7.5,1.6,11.4h0.2c0.7-3.9,1.5-7.7,2.3-11.4l4.1-17.4h6.1l4.1,17.4
	c0.8,3.7,1.5,7.5,2.3,11.4h0.2c0.5-3.9,1.1-7.7,1.6-11.4l2.8-17.4h6.7l-6.6,35.6h-8.9l-4-17.6c-0.6-2.8-1.1-5.5-1.5-8.3h-0.2
	c-0.5,2.7-1,5.5-1.5,8.3l-3.9,17.6H117L110.2,182.4z"/>
<path class="st0" d="M164.5,182.4h8.4l11.5,35.6h-7.5l-2.5-9.1h-11.6l-2.5,9.1h-7.2L164.5,182.4z M164.4,203.4h8.5l-1.1-3.9
	c-1.1-3.7-2.1-7.8-3.1-11.6h-0.2c-0.9,3.9-2,7.9-3,11.6L164.4,203.4z"/>
<path class="st0" d="M188.6,182.4h7.3l10.4,19l3.6,7.7h0.3c-0.3-3.7-0.9-8.4-0.9-12.5v-14.2h6.7V218h-7.2l-10.3-19l-3.6-7.7h-0.2
	c0.3,3.9,0.9,8.3,0.9,12.4V218h-6.7L188.6,182.4z"/>
<path class="st0" d="M204.5,400.4H50.4C22.6,400.3,0,377.8,0,350V127.4C0,57,57,0,127.4,0s127.4,57,127.4,127.4V350
	C254.8,377.8,232.3,400.3,204.5,400.4 M127.4,15.1c-62,0.1-112.2,50.3-112.3,112.3V350c0,19.5,15.8,35.2,35.3,35.2h154.1
	c19.5,0,35.2-15.8,35.3-35.2V127.4C239.7,65.4,189.4,15.2,127.4,15.1"/>
<text transform="matrix(1 0 0 1 93.5699 247.99)" class="st0 st1 st2">Plan V0.1</text>
</svg>
