<svg xmlns="http://www.w3.org/2000/svg" xmlns:xlink="http://www.w3.org/1999/xlink" viewBox="0 0 1130.51 515"><defs><style>.cls-1,.cls-19,.cls-33{fill:none;}.cls-2{fill:#444994;}.cls-3{fill:#151353;}.cls-4{fill:#008069;}.cls-5{fill:#52e3ff;}.cls-6{isolation:isolate;}.cls-7{fill:url(#Nueva_muestra_de_motivo_17);}.cls-8{fill:url(#Nueva_muestra_de_motivo_17-3);}.cls-9{fill:url(#Nueva_muestra_de_motivo_17-5);}.cls-10,.cls-26{fill:#fff;}.cls-10{stroke:#d6d7f7;stroke-miterlimit:10;}.cls-10,.cls-19{stroke-width:1.17px;}.cls-11{fill:#ffc542;}.cls-12{fill:#ffa1bc;}.cls-13{fill:url(#Nueva_muestra_de_motivo_10);}.cls-14{fill:url(#Nueva_muestra_de_motivo_17-7);}.cls-15{fill:url(#Nueva_muestra_de_motivo_10-3);}.cls-16{fill:url(#Nueva_muestra_de_motivo_10-5);}.cls-17,.cls-20{fill:#070936;}.cls-17{mix-blend-mode:multiply;opacity:0.1;}.cls-18{fill:#e6725d;}.cls-19{stroke:#070936;}.cls-19,.cls-33{stroke-linecap:round;stroke-linejoin:round;}.cls-21{fill:#d6d7f7;}.cls-22{fill:url(#Nueva_muestra_de_motivo_2);}.cls-23{fill:url(#Nueva_muestra_de_motivo_2-3);}.cls-24{fill:url(#Nueva_muestra_de_motivo_2-5);}.cls-25{fill:#f49884;}.cls-27{fill:url(#Nueva_muestra_de_motivo_2-7);}.cls-28{fill:url(#Nueva_muestra_de_motivo_3);}.cls-29{fill:url(#Nueva_muestra_de_motivo_3-3);}.cls-30{fill:url(#Nueva_muestra_de_motivo_3-5);}.cls-31{fill:url(#Nueva_muestra_de_motivo_2-9);}.cls-32{fill:url(#Nueva_muestra_de_motivo_10-15);}.cls-33{stroke:#ffaba0;stroke-width:0;}.cls-34{fill:#ffa2be;}.cls-35{fill:url(#Nueva_muestra_de_motivo_3-9);}.cls-36{fill:url(#Nueva_muestra_de_motivo_2-13);}.cls-37{fill:url(#Nueva_muestra_de_motivo_3-11);}.cls-38{fill:url(#Nueva_muestra_de_motivo_2-21);}.cls-39{fill:url(#Nueva_muestra_de_motivo_10-23);}.cls-40{fill:url(#Nueva_muestra_de_motivo_2-23);}.cls-41{fill:url(#Nueva_muestra_de_motivo_10-25);}.cls-42{fill:url(#Nueva_muestra_de_motivo_2-25);}.cls-43{fill:url(#Nueva_muestra_de_motivo_10-27);}.cls-44{fill:url(#Nueva_muestra_de_motivo_2-27);}.cls-45{fill:url(#Nueva_muestra_de_motivo_2-29);}.cls-46{fill:url(#Nueva_muestra_de_motivo_3-13);}.cls-47{fill:url(#Nueva_muestra_de_motivo_3-15);}.cls-48{fill:url(#Nueva_muestra_de_motivo_10-29);}</style><pattern id="Nueva_muestra_de_motivo_17" data-name="Nueva muestra de motivo 17" width="300" height="300" patternTransform="translate(-59.9 478.23) rotate(-180) scale(0.03 0.03)" patternUnits="userSpaceOnUse" viewBox="0 0 300 300"><rect class="cls-1" width="300" height="300"/><circle class="cls-3" cx="150" cy="150" r="49.95"/><path class="cls-3" d="M50,0H0V50A50,50,0,0,0,50,0Z"/><path class="cls-3" d="M0,250.05V300H50A50,50,0,0,0,0,250.05Z"/><path class="cls-3" d="M300,50V0H250.05A50,50,0,0,0,300,50Z"/><path class="cls-3" d="M300,250.05A50,50,0,0,0,250.05,300H300Z"/></pattern><pattern id="Nueva_muestra_de_motivo_17-3" data-name="Nueva muestra de motivo 17" width="300" height="300" patternTransform="translate(-28.4 518.51) rotate(-180) scale(0.03 0.03)" patternUnits="userSpaceOnUse" viewBox="0 0 300 300"><rect class="cls-1" width="300" height="300"/><circle class="cls-3" cx="150" cy="150" r="49.95"/><path class="cls-3" d="M50,0H0V50A50,50,0,0,0,50,0Z"/><path class="cls-3" d="M0,250.05V300H50A50,50,0,0,0,0,250.05Z"/><path class="cls-3" d="M300,50V0H250.05A50,50,0,0,0,300,50Z"/><path class="cls-3" d="M300,250.05A50,50,0,0,0,250.05,300H300Z"/></pattern><pattern id="Nueva_muestra_de_motivo_17-5" data-name="Nueva muestra de motivo 17" width="300" height="300" patternTransform="translate(-2.83 561.2) rotate(-180) scale(0.03 0.03)" patternUnits="userSpaceOnUse" viewBox="0 0 300 300"><rect class="cls-1" width="300" height="300"/><circle class="cls-3" cx="150" cy="150" r="49.95"/><path class="cls-3" d="M50,0H0V50A50,50,0,0,0,50,0Z"/><path class="cls-3" d="M0,250.05V300H50A50,50,0,0,0,0,250.05Z"/><path class="cls-3" d="M300,50V0H250.05A50,50,0,0,0,300,50Z"/><path class="cls-3" d="M300,250.05A50,50,0,0,0,250.05,300H300Z"/></pattern><pattern id="Nueva_muestra_de_motivo_10" data-name="Nueva muestra de motivo 10" width="35.33" height="35.33" patternTransform="matrix(-1.76, -0.1, 0.09, -1.5, -9.25, -77.53)" patternUnits="userSpaceOnUse" viewBox="0 0 35.33 35.33"><rect class="cls-1" width="35.33" height="35.33"/><rect class="cls-2" width="35.33" height="35.33"/></pattern><pattern id="Nueva_muestra_de_motivo_17-7" data-name="Nueva muestra de motivo 17" width="300" height="300" patternTransform="translate(-343.11 69.79) rotate(-90) scale(0.03 0.03)" patternUnits="userSpaceOnUse" viewBox="0 0 300 300"><rect class="cls-1" width="300" height="300"/><circle class="cls-3" cx="150" cy="150" r="49.95"/><path class="cls-3" d="M50,0H0V50A50,50,0,0,0,50,0Z"/><path class="cls-3" d="M0,250.05V300H50A50,50,0,0,0,0,250.05Z"/><path class="cls-3" d="M300,50V0H250.05A50,50,0,0,0,300,50Z"/><path class="cls-3" d="M300,250.05A50,50,0,0,0,250.05,300H300Z"/></pattern><pattern id="Nueva_muestra_de_motivo_10-3" data-name="Nueva muestra de motivo 10" width="35.33" height="35.33" patternTransform="matrix(-1.81, -0.08, 0.09, -1.16, -42.79, -69.75)" patternUnits="userSpaceOnUse" viewBox="0 0 35.33 35.33"><rect class="cls-1" width="35.33" height="35.33"/><rect class="cls-2" width="35.33" height="35.33"/></pattern><pattern id="Nueva_muestra_de_motivo_10-5" data-name="Nueva muestra de motivo 10" width="35.33" height="35.33" patternTransform="matrix(-1.03, -0.06, 0.05, -0.94, -14.74, -53.9)" patternUnits="userSpaceOnUse" viewBox="0 0 35.33 35.33"><rect class="cls-1" width="35.33" height="35.33"/><rect class="cls-2" width="35.33" height="35.33"/></pattern><pattern id="Nueva_muestra_de_motivo_2" data-name="Nueva muestra de motivo 2" width="32.57" height="32.57" patternTransform="matrix(-1.08, 0, 0.17, 1.08, 2.04, -84.7)" patternUnits="userSpaceOnUse" viewBox="0 0 32.57 32.57"><rect class="cls-1" width="32.57" height="32.57"/><rect class="cls-4" width="32.57" height="32.57"/></pattern><pattern id="Nueva_muestra_de_motivo_2-3" data-name="Nueva muestra de motivo 2" width="32.57" height="32.57" patternTransform="matrix(1.07, -0.04, 0.21, 1.08, 160.48, 80.47)" patternUnits="userSpaceOnUse" viewBox="0 0 32.57 32.57"><rect class="cls-1" width="32.57" height="32.57"/><rect class="cls-4" width="32.57" height="32.57"/></pattern><pattern id="Nueva_muestra_de_motivo_2-5" data-name="Nueva muestra de motivo 2" width="32.57" height="32.57" patternTransform="matrix(-1.07, 0.06, 0.23, 1.08, 23.53, 76.81)" patternUnits="userSpaceOnUse" viewBox="0 0 32.57 32.57"><rect class="cls-1" width="32.57" height="32.57"/><rect class="cls-4" width="32.57" height="32.57"/></pattern><pattern id="Nueva_muestra_de_motivo_2-7" data-name="Nueva muestra de motivo 2" width="32.57" height="32.57" patternTransform="matrix(1.29, 0.1, -0.1, 1.29, -42.65, -81.94)" patternUnits="userSpaceOnUse" viewBox="0 0 32.57 32.57"><rect class="cls-1" width="32.57" height="32.57"/><rect class="cls-4" width="32.57" height="32.57"/></pattern><pattern id="Nueva_muestra_de_motivo_3" data-name="Nueva muestra de motivo 3" width="35.33" height="35.33" patternTransform="translate(-41.94 -7.47) scale(1.48 1.17)" patternUnits="userSpaceOnUse" viewBox="0 0 35.33 35.33"><rect class="cls-1" width="35.33" height="35.33"/><rect class="cls-5" width="35.33" height="35.33"/></pattern><pattern id="Nueva_muestra_de_motivo_3-3" data-name="Nueva muestra de motivo 3" width="35.33" height="35.33" patternTransform="translate(-42.98 -50.22) scale(1.48 1.37)" patternUnits="userSpaceOnUse" viewBox="0 0 35.33 35.33"><rect class="cls-1" width="35.33" height="35.33"/><rect class="cls-5" width="35.33" height="35.33"/></pattern><pattern id="Nueva_muestra_de_motivo_3-5" data-name="Nueva muestra de motivo 3" width="35.33" height="35.33" patternTransform="matrix(-1.48, 0, 0, 1.37, -38.24, -50.22)" patternUnits="userSpaceOnUse" viewBox="0 0 35.33 35.33"><rect class="cls-1" width="35.33" height="35.33"/><rect class="cls-5" width="35.33" height="35.33"/></pattern><pattern id="Nueva_muestra_de_motivo_2-9" data-name="Nueva muestra de motivo 2" width="32.57" height="32.57" patternTransform="translate(-69.91 -41.79) scale(1.29 1.29)" patternUnits="userSpaceOnUse" viewBox="0 0 32.57 32.57"><rect class="cls-1" width="32.57" height="32.57"/><rect class="cls-4" width="32.57" height="32.57"/></pattern><pattern id="Nueva_muestra_de_motivo_10-15" data-name="Nueva muestra de motivo 10" width="35.33" height="35.33" patternTransform="matrix(-1.36, -0.08, 0.07, -1.16, 22.31, -51.93)" patternUnits="userSpaceOnUse" viewBox="0 0 35.33 35.33"><rect class="cls-1" width="35.33" height="35.33"/><rect class="cls-2" width="35.33" height="35.33"/></pattern><pattern id="Nueva_muestra_de_motivo_3-9" data-name="Nueva muestra de motivo 3" width="35.33" height="35.33" patternTransform="translate(-27.55 -36.37) scale(1.29 1.29)" patternUnits="userSpaceOnUse" viewBox="0 0 35.33 35.33"><rect class="cls-1" width="35.33" height="35.33"/><rect class="cls-5" width="35.33" height="35.33"/></pattern><pattern id="Nueva_muestra_de_motivo_2-13" data-name="Nueva muestra de motivo 2" width="32.57" height="32.57" patternTransform="matrix(-1.29, 0, 0, 1.29, -32.88, -44.99)" patternUnits="userSpaceOnUse" viewBox="0 0 32.57 32.57"><rect class="cls-1" width="32.57" height="32.57"/><rect class="cls-4" width="32.57" height="32.57"/></pattern><pattern id="Nueva_muestra_de_motivo_3-11" data-name="Nueva muestra de motivo 3" width="35.33" height="35.33" patternTransform="matrix(-1.48, 0, 0, 1.37, -49.95, -68.77)" patternUnits="userSpaceOnUse" viewBox="0 0 35.33 35.33"><rect class="cls-1" width="35.33" height="35.33"/><rect class="cls-5" width="35.33" height="35.33"/></pattern><pattern id="Nueva_muestra_de_motivo_2-21" data-name="Nueva muestra de motivo 2" width="32.57" height="32.57" patternTransform="matrix(-1.01, 0, 0, 1.02, -33.57, -54.82)" patternUnits="userSpaceOnUse" viewBox="0 0 32.57 32.57"><rect class="cls-1" width="32.57" height="32.57"/><rect class="cls-4" width="32.57" height="32.57"/></pattern><pattern id="Nueva_muestra_de_motivo_10-23" data-name="Nueva muestra de motivo 10" width="35.33" height="35.33" patternTransform="matrix(-1.01, 0, 0, 1.02, -67.84, 20.46)" patternUnits="userSpaceOnUse" viewBox="0 0 35.33 35.33"><rect class="cls-1" width="35.33" height="35.33"/><rect class="cls-2" width="35.33" height="35.33"/></pattern><pattern id="Nueva_muestra_de_motivo_2-23" data-name="Nueva muestra de motivo 2" width="32.57" height="32.57" patternTransform="matrix(1.01, -0.04, 0.04, 1.01, 37.63, 15.98)" patternUnits="userSpaceOnUse" viewBox="0 0 32.57 32.57"><rect class="cls-1" width="32.57" height="32.57"/><rect class="cls-4" width="32.57" height="32.57"/></pattern><pattern id="Nueva_muestra_de_motivo_10-25" data-name="Nueva muestra de motivo 10" width="35.33" height="35.33" patternTransform="matrix(1.01, -0.04, 0.04, 1.01, 22.1, 80.65)" patternUnits="userSpaceOnUse" viewBox="0 0 35.33 35.33"><rect class="cls-1" width="35.33" height="35.33"/><rect class="cls-2" width="35.33" height="35.33"/></pattern><pattern id="Nueva_muestra_de_motivo_2-25" data-name="Nueva muestra de motivo 2" width="32.57" height="32.57" patternTransform="matrix(-1.01, 0.06, 0.06, 1.01, -67.9, 37.83)" patternUnits="userSpaceOnUse" viewBox="0 0 32.57 32.57"><rect class="cls-1" width="32.57" height="32.57"/><rect class="cls-4" width="32.57" height="32.57"/></pattern><pattern id="Nueva_muestra_de_motivo_10-27" data-name="Nueva muestra de motivo 10" width="35.33" height="35.33" patternTransform="matrix(-1.01, 0.06, 0.06, 1.01, -35.82, -16.16)" patternUnits="userSpaceOnUse" viewBox="0 0 35.33 35.33"><rect class="cls-1" width="35.33" height="35.33"/><rect class="cls-2" width="35.33" height="35.33"/></pattern><pattern id="Nueva_muestra_de_motivo_2-27" data-name="Nueva muestra de motivo 2" width="32.57" height="32.57" patternTransform="matrix(1.29, -0.14, 0.14, 1.29, -39.13, 33.39)" patternUnits="userSpaceOnUse" viewBox="0 0 32.57 32.57"><rect class="cls-1" width="32.57" height="32.57"/><rect class="cls-4" width="32.57" height="32.57"/></pattern><pattern id="Nueva_muestra_de_motivo_2-29" data-name="Nueva muestra de motivo 2" width="32.57" height="32.57" patternTransform="translate(-60.3 -31) scale(1.29 1.29)" patternUnits="userSpaceOnUse" viewBox="0 0 32.57 32.57"><rect class="cls-1" width="32.57" height="32.57"/><rect class="cls-4" width="32.57" height="32.57"/></pattern><pattern id="Nueva_muestra_de_motivo_3-13" data-name="Nueva muestra de motivo 3" width="35.33" height="35.33" patternTransform="matrix(-1.48, 0, 0, 1.37, -52.54, -47.92)" patternUnits="userSpaceOnUse" viewBox="0 0 35.33 35.33"><rect class="cls-1" width="35.33" height="35.33"/><rect class="cls-5" width="35.33" height="35.33"/></pattern><pattern id="Nueva_muestra_de_motivo_3-15" data-name="Nueva muestra de motivo 3" width="35.33" height="35.33" patternTransform="matrix(-1.48, 0, 0, 1.37, -52.23, -47.92)" patternUnits="userSpaceOnUse" viewBox="0 0 35.33 35.33"><rect class="cls-1" width="35.33" height="35.33"/><rect class="cls-5" width="35.33" height="35.33"/></pattern><pattern id="Nueva_muestra_de_motivo_10-29" data-name="Nueva muestra de motivo 10" width="35.33" height="35.33" patternTransform="translate(0.7 -20.17) scale(1.1 1.23)" patternUnits="userSpaceOnUse" viewBox="0 0 35.33 35.33"><rect class="cls-1" width="35.33" height="35.33"/><rect class="cls-2" width="35.33" height="35.33"/></pattern></defs><g class="cls-6"><g id="圖層_1" data-name="圖層 1"><polygon class="cls-7" points="877.48 211.12 782.56 211.12 877.48 114.21 877.48 211.12"/><path class="cls-8" d="M279.09,322.53A11.91,11.91,0,1,1,291,334.46,11.92,11.92,0,0,1,279.09,322.53Z"/><ellipse class="cls-9" cx="347.9" cy="255.76" rx="51.97" ry="52.04"/><rect class="cls-10" x="703.6" y="48.67" width="92.89" height="118.14"/><rect class="cls-10" x="713.15" y="57.74" width="73.8" height="100.01"/><rect class="cls-11" x="723.22" y="78.71" width="25.53" height="48.36"/><ellipse class="cls-12" cx="758.58" cy="123.28" rx="18.29" ry="18.31"/><polygon class="cls-13" points="752.86 143.81 735.98 143.81 744.42 129.79 752.86 143.81"/><rect class="cls-14" x="744.66" y="69.32" width="24.93" height="24.97"/><path class="cls-15" d="M442.89,139.05c0,10.83-6.6,19.78-15.17,21.17-1.37,5.08-1.54,29.09-1.66,32.94s3.79,8.35,0,8.35-2.48-3.41-1.69-8.35c.73-4.62,1-29-1-32.38a1.78,1.78,0,0,0-.88,1.15c-1.24,6.29-5,10.88-9.57,10.88-5.51,0-10-6.83-10-15.24,0-5.5,1.92-10.32,4.77-13a1.51,1.51,0,0,0,.53-1.34,26,26,0,0,1-.33-4.18,25,25,0,0,1,1.13-7.54,1.58,1.58,0,0,0-.69-1.73,6.45,6.45,0,0,1-2.54-5.21,6.12,6.12,0,0,1,5.87-6.33,5.56,5.56,0,0,1,3.39,1.16,3.05,3.05,0,0,0,3.13.18,14.67,14.67,0,0,1,7.19-1.89h0a2.3,2.3,0,0,0,2.44-1.59c.76-4.26,3.68-7.44,7.19-7.44,4.08,0,7.38,4.29,7.38,9.58a12.16,12.16,0,0,1-.08,1.37,7.28,7.28,0,0,1,6.8,7.48,7.44,7.44,0,0,1-5,7.14,1.82,1.82,0,0,0-1.46,1.78A27.73,27.73,0,0,1,442.89,139.05Z"/><path class="cls-16" d="M402.32,136.29c-1.54.32-1.56,3.32,0,3.81S404.66,135.8,402.32,136.29Z"/><path class="cls-16" d="M430.23,186.5c-2.84.62-1.38,6.45,1.35,6.15S433.36,185.82,430.23,186.5Z"/><path class="cls-11" d="M521.13,340.82c-2.1-1.65-1-7.15,2.49-6.22S523.24,342.47,521.13,340.82Z"/><path class="cls-11" d="M569.4,333.4c3.68-.8,8.61,5.38,4.46,8.31S565.71,334.19,569.4,333.4Z"/><path class="cls-11" d="M565.92,331.14a18.35,18.35,0,0,1-6.65,13.46h.1a7.48,7.48,0,0,0-.66.43,2.2,2.2,0,0,0-.25.17c-2.28,1.79-2.76,4.71-2.31,12.39.51,8.63,2.24,14.3-.86,14.3s-.65-6.69-.65-13.65-.32-7.36-2.3-10.49a13.9,13.9,0,0,1-2.52.22c-.57,0-1.14,0-1.7-.08a.56.56,0,0,0,0,.08c-2.1,3.3-1.4,13-1.4,20s3.12,15,0,15-2-5.69-1.49-14.31c.5-8.36-1.11-21.15-4-23.49a1.48,1.48,0,0,0-.27-.19,18.32,18.32,0,0,1-7.19-14.8,15.73,15.73,0,0,1,.17-2.39h-.17a12.17,12.17,0,0,1-8.24-3.43,3.17,3.17,0,0,0-4.19-.16,7.6,7.6,0,0,1-4.82,1.76c-4.68,0-8.48-4.43-8.48-9.9s3.8-9.9,8.48-9.9a6.7,6.7,0,0,1,2.24.36c.14-11.41,6.8-20.62,15-20.62,5.89,0,11,4.74,13.45,11.63a10.75,10.75,0,0,1,5.84-1.74,11,11,0,0,1,7,2.59,16.84,16.84,0,1,1,5.92,32.74Z"/><path class="cls-11" d="M529.66,336.27c-2.2.59-3.25-3.83-1.47-4.25C530.57,331.47,531.85,335.68,529.66,336.27Z"/><path class="cls-11" d="M562.46,360.69c-2.2.59-3.26-3.83-1.47-4.25C563.36,355.9,564.65,360.1,562.46,360.69Z"/><ellipse class="cls-17" cx="853.05" cy="453.51" rx="52.28" ry="12.25"/><path class="cls-17" d="M575.93,460.34c-82.4,0-155.72,4.14-202.64,10.58-15.42-5-45.33-8.42-79.7-8.42-50.17,0-90.84,7.25-90.84,16.18s40.67,16.18,90.84,16.18c11.41,0,22.32-.38,32.38-1.06,26.11,12.14,128.11,21.2,250,21.2,141.63,0,256.44-12.24,256.44-27.33S717.56,460.34,575.93,460.34Z"/><path class="cls-12" d="M420.51,476.45c-4.43,0-8.64-.18-12.39-.5-1.82,1.28-6.35,2.2-11.65,2.2-6.9,0-12.49-1.55-12.49-3.46,0-1.45,3.22-2.69,7.8-3.2a.73.73,0,0,1,0-.25c0-2.89,12.88-5.24,28.77-5.24,1.52,0,3,0,4.44.07a22,22,0,0,1,7.41-1.11c5,0,9.1,1.21,9.54,2.77,4.6.93,7.4,2.17,7.4,3.51C449.3,474.11,436.4,476.45,420.51,476.45Z"/><path class="cls-12" d="M443.45,485.67c0,1.31-2.29,2.37-5.11,2.37s-5.12-1.06-5.12-2.37,2.29-2.35,5.12-2.35S443.45,484.37,443.45,485.67Z"/><path class="cls-12" d="M461.28,464.07c0,.67-1.44,1.21-3.22,1.21s-3.22-.54-3.22-1.21,1.44-1.23,3.22-1.23S461.28,463.4,461.28,464.07Z"/><path class="cls-18" d="M675.54,469.8c0,2.76-8.47,5-18.91,5a1.91,1.91,0,0,1,.59,1.27c0,3.19-10.71,5.76-23.93,5.76a83.81,83.81,0,0,1-14.42-1.16c-1,1-3.6,1.64-6.68,1.64-3.92,0-7.1-1.1-7.1-2.47,0-1.1,2.11-2,5-2.36a2,2,0,0,1-.72-1.41c0-3.18,10.72-5.76,23.92-5.76,1.57,0,3.09,0,4.58.1a1.31,1.31,0,0,1-.15-.61c0-2.75,8.47-5,18.91-5S675.54,467.05,675.54,469.8Z"/><path class="cls-18" d="M618.22,466.1c0-.71,1.39-1.28,3.11-1.28s3.13.57,3.13,1.28-1.4,1.28-3.13,1.28S618.22,466.81,618.22,466.1Z"/><line class="cls-19" x1="230.72" y1="434.82" x2="877.48" y2="434.82"/><polygon class="cls-18" points="482.37 480.46 464.68 480.46 460.17 313.78 459.46 287.71 452.44 27.91 459.46 28.61 472.59 287.71 473.92 313.78 482.37 480.46"/><polygon class="cls-20" points="473.92 313.78 460.17 313.78 459.46 287.71 472.59 287.71 473.92 313.78"/><polygon class="cls-18" points="593.19 480.46 572.69 480.46 544.59 313.78 540.21 287.71 497.17 32.35 504.32 33.06 554.91 287.71 560.09 313.78 593.19 480.46"/><polygon class="cls-20" points="560.09 313.78 544.59 313.78 540.21 287.71 554.91 287.71 560.09 313.78"/><polygon class="cls-18" points="516.79 295.37 500.06 295.37 472.4 0 478.37 0.59 516.79 295.37"/><polygon class="cls-18" points="454.31 129.95 454.31 165.36 431.98 257.54 371.79 480.46 355.63 480.46 430.23 220.21 454.31 129.95"/><polygon class="cls-20" points="454.31 129.95 454.31 165.36 431.98 257.54 430.23 220.21 454.31 129.95"/><polygon class="cls-10" points="447.37 283 570.06 283 524.48 70.71 439.68 62.3 447.37 283"/><polygon class="cls-21" points="439.05 61.71 434.16 70.18 441.02 283 447.37 283 439.05 61.71"/><rect class="cls-18" x="435.69" y="282.24" width="139.75" height="7.99"/><ellipse class="cls-12" cx="480.38" cy="242.69" rx="17.75" ry="17.77"/><polygon class="cls-11" points="458.23 150.3 489.29 91.89 536.4 187.95 458.23 150.3"/><path class="cls-21" d="M506.41,205a.34.34,0,0,1-.33.35.62.62,0,0,1-.48-.2,1.09,1.09,0,0,1-.16-.5l-.1-.53L505,202l-.78-4.2-1.56-8.4h0l-.39-.69,0,0c-5.29-3.18-10.39-7-13.89-12.18s-5.87-10.93-8.89-16.32l-.28-.51a1.58,1.58,0,0,1-.27-.62.35.35,0,0,1,.18-.29.46.46,0,0,1,.24,0,1.57,1.57,0,0,1,.34.07,3.14,3.14,0,0,1,.55.29l2,1.26,1.91,1.33,1.86,1.41a44.83,44.83,0,0,1,6.71,6.5c4,4.78,7,10.35,9.62,15.95l-.79.26a116.47,116.47,0,0,0-3.17-11.65,86.26,86.26,0,0,0-4.59-11.13,71.76,71.76,0,0,0-13.88-19.51l.75.05a3,3,0,0,1-2.11.37,9.55,9.55,0,0,1-1.81-.42c-.56-.17-1.17-.42-1.65-.6a8,8,0,0,0-1.58-.32l.31-.05a7.68,7.68,0,0,0-2.51,3.08c-.37.63-.73,1.28-1.18,1.91a4.57,4.57,0,0,1-1.86,1.6,2.7,2.7,0,0,1-2.6-.25,5.21,5.21,0,0,1-1.61-1.83,5.57,5.57,0,0,1-.18-4.67l.4.71a1.43,1.43,0,0,1-.78-.4.7.7,0,0,1-.15-.2l-.08-.14c-.06-.1-.1-.2-.15-.3a2.38,2.38,0,0,1-.15-1.4l.77.57A7.75,7.75,0,0,1,462,142a3.45,3.45,0,0,1-2,0,3,3,0,0,1-1.57-1.3,5.33,5.33,0,0,1-.63-1.82,4.1,4.1,0,0,1,1.23-3.57,8.1,8.1,0,0,1,3.15-1.85l-.15.86a3.28,3.28,0,0,1-1.16-1.7,2.19,2.19,0,0,1,0-1.14,1.66,1.66,0,0,1,.75-1l0,.79a11.63,11.63,0,0,1-1.47-1.27,3.25,3.25,0,0,1-1-1.89,1.6,1.6,0,0,1,.45-1.18,2.81,2.81,0,0,1,1-.6,4.51,4.51,0,0,1,2.06,0,14.63,14.63,0,0,1,3.61,1.29c1.13.56,2.22,1.18,3.29,1.84a50.21,50.21,0,0,1,6.1,4.37,16.33,16.33,0,0,1,4.65,5.94l0,0a7.26,7.26,0,0,1,.59,1.37,3.74,3.74,0,0,1,.15,1.54l-.08-.25A70.28,70.28,0,0,1,492,155.65a82.82,82.82,0,0,1,7.81,15.47A104.8,104.8,0,0,1,506.41,205Zm0,0a104.74,104.74,0,0,0-6.77-33.84,74.27,74.27,0,0,0-19.19-28.41l-.11-.1,0-.15a3,3,0,0,0-.16-1.28,6,6,0,0,0-.55-1.25v0a15.73,15.73,0,0,0-4.55-5.63,48.6,48.6,0,0,0-6.06-4.23c-1-.63-2.13-1.23-3.23-1.76a14.17,14.17,0,0,0-3.4-1.18,3.75,3.75,0,0,0-1.64,0,2.05,2.05,0,0,0-.59.38.65.65,0,0,0-.2.51,2.43,2.43,0,0,0,.78,1.29,9.5,9.5,0,0,0,1.36,1.15l.56.41-.6.39a.68.68,0,0,0-.32.4,1.37,1.37,0,0,0,0,.63,2.41,2.41,0,0,0,.85,1.18l.68.55-.83.3a7.26,7.26,0,0,0-2.76,1.62,3.07,3.07,0,0,0-.94,2.71,4.58,4.58,0,0,0,.5,1.43,1.86,1.86,0,0,0,1,.85,3.93,3.93,0,0,0,2.87-.61l1-.52-.21,1.08a1.36,1.36,0,0,0,.09.79l.1.2.06.1s0,0,0,0a.58.58,0,0,0,.21.08l.63.11-.23.6a4.53,4.53,0,0,0,.14,3.78,4.26,4.26,0,0,0,1.25,1.43,1.59,1.59,0,0,0,1.56.15c1.1-.46,1.77-1.82,2.49-3a21.52,21.52,0,0,1,1.19-1.91,5.48,5.48,0,0,1,1.79-1.65l.15-.07.16,0a8,8,0,0,1,1.85.36c.61.22,1.09.42,1.64.59a8.49,8.49,0,0,0,1.59.37,2,2,0,0,0,1.28-.14l.4-.29.35.34a72.64,72.64,0,0,1,14,19.88,83.69,83.69,0,0,1,4.59,11.29,117.61,117.61,0,0,1,3.06,11.77l.77,3.67-1.56-3.4c-2.57-5.62-5.41-11.15-9.33-15.92a45.74,45.74,0,0,0-6.55-6.5l-1.82-1.42-1.89-1.34L480,159.53a2,2,0,0,0-.47-.26.68.68,0,0,0-.22-.05h-.05s.05-.06,0-.06a2.49,2.49,0,0,0,.22.42l.28.51c3,5.46,5.19,11.29,8.69,16.41s8.52,9,13.79,12.21h0l.38.69h0l1.52,8.41L505,202l.38,2.1.09.52a.94.94,0,0,0,.17.5.56.56,0,0,0,.47.2A.32.32,0,0,0,506.41,205Z"/><path class="cls-21" d="M512.66,124.05a2.29,2.29,0,0,1-.63,1.65,2.5,2.5,0,0,1-1.69.56,9.06,9.06,0,0,1-3.49-.93c-1.12-.47-2.21-1-3.33-1.45a8.57,8.57,0,0,0-3.51-.77h0a6.6,6.6,0,0,0-1.29,1.24c-.35.49-.67,1-1.05,1.47a8.22,8.22,0,0,1-1.27,1.3,2.81,2.81,0,0,1-1.66.69l0,0a52.57,52.57,0,0,0-3.53,14.3,76.62,76.62,0,0,0-.15,14.76,125.26,125.26,0,0,0,6.25,28.82c1.55,4.67,3.36,9.27,5,13.91.84,2.33,1.65,4.67,2.38,7a1,1,0,0,1,0,.74.88.88,0,0,1-.64.52,1.18,1.18,0,0,1-1.24-.53c-.34-.65-.55-1.15-.82-1.73-.52-1.13-1-2.26-1.5-3.4-1.94-4.55-3.64-9.2-5.2-13.89-.78-2.35-1.54-4.7-2.26-7.06l-2.06-7.14.19.29a55.86,55.86,0,0,1-12.42-13.33,62.13,62.13,0,0,1-7.11-16.77l-.6-2.19a1.34,1.34,0,0,1,0-.94.83.83,0,0,1,.38-.36.78.78,0,0,1,.44,0,1.18,1.18,0,0,1,.46.19c.39.29.61.5.92.76,1.18,1,2.3,2,3.38,3.08a51.06,51.06,0,0,1,5.88,7,64,64,0,0,1,4.65,7.85c1.36,2.71,2.57,5.49,3.78,8.25l-.84.25a79.56,79.56,0,0,1-1.51-10.28,69.56,69.56,0,0,1-.06-10.41,58.68,58.68,0,0,1,1.63-10.28,54.06,54.06,0,0,1,3.51-9.78l.07.26a4.38,4.38,0,0,1-1.19-1.46,7.43,7.43,0,0,1-.66-1.73v0a14.89,14.89,0,0,1-.57-7.88,39.12,39.12,0,0,1,2.19-7.6,27.21,27.21,0,0,1,1.66-3.6,10,10,0,0,1,2.47-3.09,3.14,3.14,0,0,1,1.86-.68,2.15,2.15,0,0,1,1.82.75,3.13,3.13,0,0,1,.48,1.93,10,10,0,0,1-.31,2l-.06-.08a1.87,1.87,0,0,1,1,.29,2.43,2.43,0,0,1,.74.79,2.76,2.76,0,0,1,.34,2.06l-.06-.06a11.08,11.08,0,0,1,4.1,0,6.07,6.07,0,0,1,3.53,2,6.26,6.26,0,0,1,1,1.8,2.29,2.29,0,0,1-.07,2,2.65,2.65,0,0,1-1.7,1.09,8.83,8.83,0,0,1-2,.25v0a2.73,2.73,0,0,1,.76,1,2.15,2.15,0,0,1,.18.61.72.72,0,0,1-.24.58v0a8.9,8.9,0,0,1,2.53,2.28A5.26,5.26,0,0,1,512.66,124.05Zm0,0a5.28,5.28,0,0,0-1-3.19,9,9,0,0,0-2.53-2.27h0a.75.75,0,0,0,.23-.56,2.59,2.59,0,0,0-.18-.6,2.75,2.75,0,0,0-.75-1l0,0h.05a8.19,8.19,0,0,0,2-.26,2.62,2.62,0,0,0,1.66-1.07,2.25,2.25,0,0,0,.06-2,6.35,6.35,0,0,0-1-1.77,6,6,0,0,0-3.49-2,10.92,10.92,0,0,0-4.07,0h-.08l0-.08a2.65,2.65,0,0,0-.34-2,2.25,2.25,0,0,0-.7-.74,1.7,1.7,0,0,0-1-.27h-.08l0-.08a9.89,9.89,0,0,0,.29-1.94,2.91,2.91,0,0,0-.46-1.83,2,2,0,0,0-1.69-.69,3.16,3.16,0,0,0-1.78.66,10,10,0,0,0-2.41,3,28,28,0,0,0-1.61,3.58,38.75,38.75,0,0,0-2.09,7.58,14.51,14.51,0,0,0,.63,7.68h0v0A6.74,6.74,0,0,0,493,126a3.86,3.86,0,0,0,1.08,1.31l.14.1-.08.17a54.91,54.91,0,0,0-3.37,9.73,59.48,59.48,0,0,0-1.5,10.2,70.83,70.83,0,0,0,.17,10.3A81,81,0,0,0,491,168l.92,4.18-1.76-3.93c-2.46-5.5-5-11-8.46-15.87a50.93,50.93,0,0,0-5.78-6.83c-1.07-1.05-2.17-2.06-3.33-3-.27-.22-.6-.51-.82-.68l-.05,0a.41.41,0,0,0,.17,0,.39.39,0,0,0,.17-.17c0-.14,0,0,.06.18l.61,2.17a61.9,61.9,0,0,0,7,16.44,54.71,54.71,0,0,0,12.12,13.11l.13.11.05.18,2,7.09c.71,2.37,1.46,4.71,2.22,7.05,1.55,4.68,3.21,9.32,5.07,13.87.47,1.13,1,2.26,1.45,3.39l.75,1.62a.34.34,0,0,0,.33.18c.08-.05.08,0,0-.2-.7-2.35-1.48-4.69-2.29-7-1.62-4.66-3.38-9.28-4.89-14a127,127,0,0,1-6-29,81.19,81.19,0,0,1,.27-14.79,52.46,52.46,0,0,1,3.61-14.33v0h0a2.71,2.71,0,0,0,1.61-.66,8,8,0,0,0,1.26-1.28c.38-.46.7-1,1.05-1.46a6.75,6.75,0,0,1,1.31-1.25h0a8.63,8.63,0,0,1,3.53.8c1.12.45,2.21,1,3.32,1.46a8.89,8.89,0,0,0,3.48.94,2.42,2.42,0,0,0,1.68-.55A2.26,2.26,0,0,0,512.66,124.05Z"/><path class="cls-21" d="M531.55,136a2,2,0,0,1-.52,1.26,1.86,1.86,0,0,1-1.28.47,7.35,7.35,0,0,1-2.68-.67l0,0a2,2,0,0,1,.25,1,1.9,1.9,0,0,1-.09.53.77.77,0,0,1-.44.31v0a5.56,5.56,0,0,1,1.28,4.36,2.62,2.62,0,0,1-1.33,1.86,2.73,2.73,0,0,1-2.27-.35,17.09,17.09,0,0,1-3.45-3.13,11.32,11.32,0,0,0-3.61-2.86h0a6.2,6.2,0,0,0-1.59.41c-.49.23-1,.49-1.5.69a7.4,7.4,0,0,1-1.61.45,2.72,2.72,0,0,1-1.66-.21l.1,0a42.81,42.81,0,0,0-4.69,10A59.31,59.31,0,0,0,504.18,161a69.68,69.68,0,0,0-.47,11.09,108.13,108.13,0,0,0,1,11.07H504c.6-5.45,1.43-11,3.73-16.1A29.51,29.51,0,0,1,512.2,160c.47-.51.92-1,1.4-1.55l1.49-1.46,1.56-1.38a1.68,1.68,0,0,1,.62-.35,1,1,0,0,1,.53,0,.71.71,0,0,1,.54.63,2.51,2.51,0,0,1-.08.67l-.1.5c-1.06,5.33-1.28,10.89-2.93,16.25a22,22,0,0,1-3.89,7.43,37.4,37.4,0,0,1-5.94,5.86l.2-.32-.16.7v-.2l1.64,10.17.82,5.09,0,.16a1.08,1.08,0,0,1,0,.22.88.88,0,0,1-.31.7,1,1,0,0,1-1.26,0,1.12,1.12,0,0,1-.35-.53l-.09-.31-.18-.62-.72-2.48a105.67,105.67,0,0,1-3.7-20.34,73.44,73.44,0,0,1,1.05-20.61,21.88,21.88,0,0,1,.58-2.52l.66-2.5.84-2.45.42-1.22.52-1.19,1-2.37,1.23-2.28.61-1.13.72-1.08,1.43-2.16v.16a4.61,4.61,0,0,1-.21-2.86v0c.18-2.64,1.7-4.91,3.37-6.81a35.72,35.72,0,0,1,5.75-5,12.52,12.52,0,0,1,3.42-1.73,3.34,3.34,0,0,1,3.59.71,1.7,1.7,0,0,1,.06,1.86,6.93,6.93,0,0,1-1.13,1.55,26.57,26.57,0,0,1-2.92,2.48l0-.06a13.9,13.9,0,0,1,6,1.54,7.06,7.06,0,0,1,2.38,2A4.46,4.46,0,0,1,531.55,136Zm0,0a4.36,4.36,0,0,0-.86-2.92,6.89,6.89,0,0,0-2.38-1.94,13.78,13.78,0,0,0-6-1.51h-.09l.07,0a25.55,25.55,0,0,0,2.9-2.49,6.65,6.65,0,0,0,1.11-1.53,1.59,1.59,0,0,0-.06-1.75,3.24,3.24,0,0,0-3.48-.67,12.66,12.66,0,0,0-3.37,1.73,35.5,35.5,0,0,0-5.7,5.06c-1.65,1.89-3.1,4.16-3.23,6.7h0a4.37,4.37,0,0,0,.22,2.68l0,.07-.05.08-1.39,2.16-.69,1.08-.6,1.13-1.19,2.27-1,2.37-.5,1.18-.4,1.22-.8,2.43-.63,2.49c-.21.83-.41,1.66-.54,2.5a72.88,72.88,0,0,0-.77,20.43A112.15,112.15,0,0,0,506,198.88l.73,2.46.18.61.09.31c0,.05,0,0,0,0s0,0-.06,0a.21.21,0,0,0-.07.14l0-.26-.84-5.09-1.69-10.16v-.1l0-.11.15-.69,0-.2.15-.13a38.14,38.14,0,0,0,5.74-5.69,20.92,20.92,0,0,0,3.74-7c1.62-5.16,1.88-10.69,3-16.12l.18-.85s.13.26.24.26.06,0,0,0a.89.89,0,0,0-.27.16l-1.53,1.34-1.45,1.42c-.47.48-.91,1-1.37,1.49a29.42,29.42,0,0,0-4.38,6.79c-2.29,4.92-3.2,10.38-3.86,15.8l-.35,2.84-.35-2.84a109,109,0,0,1-.87-11.14,69.37,69.37,0,0,1,.62-11.16,58,58,0,0,1,2.5-10.88A44.55,44.55,0,0,1,511.09,140l0-.06.07,0a2.58,2.58,0,0,0,1.56.19,6.65,6.65,0,0,0,1.57-.43c.52-.19,1-.45,1.51-.68a6.12,6.12,0,0,1,1.62-.41h0a11.71,11.71,0,0,1,3.64,2.92,17.2,17.2,0,0,0,3.42,3.13,2.67,2.67,0,0,0,2.19.35,2.54,2.54,0,0,0,1.3-1.8,5.54,5.54,0,0,0-1.25-4.33l0,0h0a.64.64,0,0,0,.41-.28,1.78,1.78,0,0,0,.1-.52,2,2,0,0,0-.25-1l0,0,0,0a7.3,7.3,0,0,0,2.67.67,1.78,1.78,0,0,0,1.27-.46A1.92,1.92,0,0,0,531.55,136Z"/><path class="cls-21" d="M525.77,130.13c-1.2,0-2.33,0-3.44,0l-1.43.07,1.12-1c1-.84,1.94-1.6,2.84-2.42l.29-.27.3.15a2.14,2.14,0,0,1,.84.74,2,2,0,0,1,.32,1A1.91,1.91,0,0,1,525.77,130.13Zm0,0a2,2,0,0,0,.15-1.58,1.36,1.36,0,0,0-.9-.93l.6-.12a14.09,14.09,0,0,1-3,2.52l-.31-.92a8.65,8.65,0,0,1,1.77.33A7.72,7.72,0,0,1,525.77,130.13Z"/><path class="cls-22" d="M511.57,137.8c-14.63,16.9-13.49,43-6.33,65.94.18.52,1,.38.88-.11-.8-5.21-1.75-10.38-2.53-15.53.05-.23.1-.45.16-.69,4-3.27,7.55-7,9.34-12,2-5.67,2.15-12.06,3.43-18,.12-.57-.46-.4-.81-.11-9.29,7.74-11.34,16.08-12.63,27.21a91.66,91.66,0,0,1-.86-17.34c.64-10.56,3.51-21,9.88-28.88C512.33,138,511.82,137.5,511.57,137.8Z"/><path class="cls-15" d="M515.11,139.77c3,.1,5.57,4.85,8.1,6.24,1.34.73,2.52.69,3.19-.52,1.8-3.2-1.95-7.15-5.25-9.36,2.25.87,4.24,2.4,6.58,2.83,1.42.26,2.41-.25,2.52-1.66.33-4.36-5.43-6.3-9.2-6.4,1.62-1.26,6.3-4.7,3.28-6.39s-8.43,3.22-10.17,4.84c-2.57,2.38-5.51,5.94-5.07,9.66C509.59,143.36,513,140.69,515.11,139.77Z"/><path class="cls-12" d="M514.37,140.51c3.52-1.73,11.19.75,11.59-.68.8-2.93-5.33-4.93-8.53-5.32,2.77-.79,8.12-2,7.52-4.83-.73-3.41-8.57-.48-12.28,2.74-4.66,4.07-4,8-3,8.77C511,142.27,513.79,140.79,514.37,140.51Z"/><path class="cls-23" d="M477.35,138.46c20.37,16.23,28.27,42.25,29.06,65.27,0,.52-.82.41-.91-.08-1-5.21-1.84-10.38-2.85-15.52l-.4-.68c-5.09-3.11-9.91-6.65-13.43-11.62-3.95-5.55-6.31-11.9-9.63-17.73-.31-.56.32-.42.77-.14,11.9,7.34,16.82,15.54,22,26.55a102.55,102.55,0,0,0-5.14-17.26C492.49,156.78,486,146.49,477,138.94,476.65,138.65,477,138.18,477.35,138.46Z"/><path class="cls-15" d="M474.51,140.56c-2.93.21-3.86,5-5.89,6.49a2.3,2.3,0,0,1-3.35-.39c-2.89-3.11-.53-7.17,2-9.49-1.93,1-3.37,2.54-5.55,3.06a2.49,2.49,0,0,1-3.08-1.55c-1.84-4.33,3.22-6.47,6.93-6.71-2.05-1.19-7.89-4.43-5.46-6.23s9.48,2.88,11.77,4.42c3.37,2.27,7.52,5.69,8.37,9.41C481.24,143.91,477,141.38,474.51,140.56Z"/><path class="cls-12" d="M475.5,141.26c-4.09-1.58-10.85,1.17-11.74-.24-1.81-2.87,3.58-5.1,6.63-5.61-3-.67-8.77-1.71-9.14-4.51-.45-3.42,8.36-.8,13.15,2.26,6,3.86,6.75,7.78,6,8.59C479.45,142.88,476.18,141.52,475.5,141.26Z"/><path class="cls-24" d="M495,181.33A199.83,199.83,0,0,0,504.48,207c.36.75,1.45.56,1.21-.25-2.4-7.91-5.73-15.67-8.12-23.58A126,126,0,0,1,492.46,159c-1.3-13.32.12-27.5,7.2-37.92.15-.25-.31-.6-.47-.37-14.25,20.3-7.65,45.18-7.29,47.41-3.76-8.4-7.78-18-18.41-26.59-.46-.37-.74-.19-.58.43,4.07,15.59,9.65,23.73,20,32.06C493.51,176.44,494.21,178.9,495,181.33Z"/><path class="cls-15" d="M500.18,123.36c2.91-1.39,7.84,2.6,11,2.87,1.66.15,2.78-.5,2.8-2.18.08-4.48-5.55-7-9.85-7.8,2.6-.16,5.3.54,7.77-.15a2.14,2.14,0,0,0,1.56-3.13c-1.93-5-8.46-4.29-12.12-2.49.91-2.23,3.63-8.43-.15-8.79s-6.43,7.84-7.27,10.52c-1.23,4-2.23,9.41.11,13.34C496.72,130.15,498.59,125.46,500.18,123.36Z"/><path class="cls-12" d="M499.84,124.55c2.49-3.7,11.13-4.79,10.77-6.6-.73-3.66-7.65-2.81-10.92-1.63,2.26-2.27,6.75-6.37,4.73-9.18-2.46-3.43-8.47,3.79-10.37,9.25-2.38,6.88.25,10.93,1.61,11.3C497.52,128.21,499.42,125.16,499.84,124.55Z"/><path class="cls-21" d="M486.74,205.5c.21,3.06.35,6.13.52,9.2l.39,9.21.28,9.21c.09,3.07.21,6.14.25,9.21l-.57-.55c5.23.05,10.46,0,15.69.14s10.47.21,15.7.43c-5.23.22-10.47.34-15.7.42s-10.46.09-15.69.15h-.55l0-.56c-.11-3.07-.13-6.14-.19-9.21l-.15-9.22-.05-9.21C486.68,211.64,486.67,208.57,486.74,205.5Z"/><path class="cls-11" d="M518.79,242.35a3,3,0,0,0,.2-1.82c-2-10.82-13.92-14-20.3-15s-11.53-5.7-11.87-16.92a1.27,1.27,0,0,1,0-.27l-.58-24.65,29.33-.07s17,53.53,18.72,58.73Z"/><path class="cls-21" d="M486.22,183.69l15.15-.91,15.15-.8.32,0,.1.31c3.08,10,6,20,9,29.94s5.86,20,8.8,30l.2.66h-.68L513,242.68q-10.67-.1-21.32-.33,10.65-.21,21.32-.33l21.32-.17-.49.65c-3-10-6-20-8.92-30s-5.89-20-8.72-30l.42.3-15.17.49Z"/><path class="cls-25" d="M672,131.19c.71,10.48-6.56,68.13-25.78,83.27-15.78,12.43-61.91-3.37-74.16-5.25-4.47-.69-1-31.74,2.56-35.06,7,.53,51.22,9.59,54.48,8s18-33,29.06-48.08C664.77,125.18,671.53,123.81,672,131.19Z"/><path class="cls-25" d="M585.1,211.25c-1.18-.35-11.6-1.9-19.5-2.91-3.16-5.28-10.7-15.06-12.69-17.66-1.71-3.27-7.24-9.27-7.52-9.05-.54.41-2.44,1.88-4.88,3.47-3.23,2.1-7.4,4.44-10.64,4.91-1.77.25-3.24,0-4.15-1.23-1.64-2.11,2.83-5.9,7.74-10.85,6.68-6.75,15.25-14.68,20.34-14.27,7.52.6,16.32,7.82,19.19,9.66s13.72,4.52,13.72,4.52C593.66,194.9,586.67,211.7,585.1,211.25Z"/><path class="cls-11" d="M511.3,210.07s10.13-10.77,20.12-22.39,36.51-32.16,37.72-31.78S548,182.18,536.85,192.38s-23.1,19.79-23.1,19.79Z"/><polygon class="cls-21" points="510.95 210.19 517.59 202.45 521.4 206.44 513.63 212.81 510.95 210.19"/><path class="cls-20" d="M511,210.19a8,8,0,0,0-5.62,4.73c-1.72,3.7-4.31,4.41-4.31,4.41s9.7,1.35,12.61-6.52Z"/><path class="cls-25" d="M500.66,219.48c.27-.51,2.68-1.19,3.76-3.12s6.31,1.44,3.61,2.48C505,220,500.16,220.41,500.66,219.48Z"/><path class="cls-25" d="M565.6,208.34c-2.69-.34-5.1-.61-6.74-.75a19.39,19.39,0,0,1-13.05-6c-3.16-3.05-16.34-4.28-11.1-9.28s17.94,1.9,18.66.1a2.52,2.52,0,0,0-.46-1.72C554.9,193.28,562.44,203.06,565.6,208.34Z"/><path class="cls-11" d="M672.89,138.22c-.47,18.64-5.55,43.71-6.95,43.76-.53,0-4.74-1.79-9.86-4.11-8.52-3.88-19.55-9.16-20.07-9.61-.86-.73,10.65-18.89,19.51-31.54,7.61-10.83,15.29-15.68,17-5.11A36.6,36.6,0,0,1,672.89,138.22Z"/><path class="cls-20" d="M639,163.36c5.68,1.75,26.13,10.5,27.65,11.92,0,0,0,.19-.08.17-4.84-1.89-15-5.58-27.68-11.84C638.81,163.57,638.91,163.33,639,163.36Z"/><path class="cls-20" d="M672.89,138.22c-.47,18.64-5.55,43.71-6.95,43.76-.53,0-4.74-1.79-9.86-4.11l16.47-46.26A36.6,36.6,0,0,1,672.89,138.22Z"/><path class="cls-25" d="M747.73,482.46c2.53-1.81,52.24-70.25,52.49-74.07.1-1.44-9.43-9.27-21.22-18.41-2.54-2-5.18-4-7.87-6C753.66,370.7,734.82,357,734.82,357l-33.39,45.69,37.23,25.65,8.17,5.64s-7.33,34.73-7.16,38.94S745.19,484.27,747.73,482.46Z"/><path class="cls-26" d="M747.73,482.46c2.53-1.81,52.24-70.25,52.49-74.07.12-1.75-14-12.95-29.09-24.44l-32.47,44.43,8.17,5.64s-7.33,34.73-7.16,38.94S745.19,484.27,747.73,482.46Z"/><path class="cls-11" d="M747.73,482.46c2.53-1.81,52.24-70.25,52.49-74.07.1-1.44-9.43-9.27-21.22-18.41l-32.17,44s-7.33,34.73-7.16,38.94S745.19,484.27,747.73,482.46Z"/><path class="cls-20" d="M745.71,479.49c8-11.68,41.62-58,50.47-68.95.07-.09.13-.05.07,0-7.73,11.75-41.68,57.82-50.36,69C745.71,479.86,745.54,479.74,745.71,479.49Z"/><path class="cls-20" d="M740.41,466.77a11.42,11.42,0,0,1,7.79-4.83,11,11,0,0,1,8,1.89c.06.05,0,.18-.1.14a13.15,13.15,0,0,0-15.52,2.9A.09.09,0,0,1,740.41,466.77Z"/><path class="cls-20" d="M744.73,439.3c3.28-4.64,8.76-8.78,14.58-8.9.23,0,.23.31.06.4a78.22,78.22,0,0,0-14.13,9A.36.36,0,0,1,744.73,439.3Z"/><path class="cls-20" d="M743.54,443.85c3.27-4.64,8.76-8.78,14.58-8.9.23,0,.23.31.06.4a78.22,78.22,0,0,0-14.13,9A.36.36,0,0,1,743.54,443.85Z"/><path class="cls-20" d="M742.35,448.4c3.27-4.64,8.75-8.78,14.58-8.9.22,0,.22.31.06.4a78,78,0,0,0-14.14,9A.35.35,0,0,1,742.35,448.4Z"/><path class="cls-20" d="M741.15,453c3.27-4.64,8.76-8.78,14.58-8.9.23,0,.23.31.06.4a78.22,78.22,0,0,0-14.13,9A.36.36,0,0,1,741.15,453Z"/><path class="cls-20" d="M783.17,405.53c3.76-5.14,11.75.7,8,5.85S779.41,410.68,783.17,405.53Z"/><path class="cls-20" d="M735.88,439.88c5-.15,9.75-2.46,14.38-4.09a.69.69,0,0,0,.23-1.09.15.15,0,0,0,0-.24,29.78,29.78,0,0,0-14.76-4.37c-3,0-7,1.54-6.81,5.26C729.12,438.88,733,440,735.88,439.88Zm-4-2.55c-4.66-4.09,2.45-5.81,4.69-5.7a31.6,31.6,0,0,1,4.31.57,89.52,89.52,0,0,1,8.67,2.36c-2.32.66-4.57,1.51-6.87,2.26C740,437.7,734.49,439.58,731.93,437.33Z"/><path class="cls-20" d="M759.38,416c-3.25-1.82-6.39,1.13-7.68,3.88a29.94,29.94,0,0,0-2.43,15.22.16.16,0,0,0,.21.13.68.68,0,0,0,1.08.26c3.47-3.48,7.6-6.78,9.89-11.22C761.79,421.69,762.46,417.74,759.38,416Zm-4.65,13.13c-1.66,1.76-3.4,3.42-5,5.24a88.94,88.94,0,0,1,1.61-8.86,31.72,31.72,0,0,1,1.34-4.14c.87-2.07,5.48-7.75,7.16-1.78C760.78,422.9,756.71,427.06,754.73,429.15Z"/><path class="cls-27" d="M769,379.75l-38.28,49.52s-34-22.6-64.92-51.36c-11.74-10.91-23-22.72-31.83-34.52S618.87,320,617.05,309.14c-6-35.5,55.57-111.56,55.57-111.56h61.91s-25.34,40.11-40.85,69.76h0c-6.84,13.06-11.75,24.08-11.75,28.75,0,4.89,3.28,11,8.57,17.78C712.45,341.81,769,379.75,769,379.75Z"/><path class="cls-20" d="M681.93,296.1c0,4.89,3.28,11,8.57,17.78l-24.74,64c-11.74-10.91-23-22.72-31.83-34.52l59.75-76C686.84,280.41,681.93,291.43,681.93,296.1Z"/><path class="cls-20" d="M722.81,420.21c5.9-7.84,4.11-5.67,10.09-13.45,2.93-3.8,22.21-28.8,25.53-31.89.07-.07.2,0,.15.11-2.22,4-21.9,28.64-24.9,32.4-6.13,7.66-4.45,5.4-10.66,13A.14.14,0,1,1,722.81,420.21Z"/><path class="cls-20" d="M753.92,376.28c-24-18.84-75.59-62.86-76.89-78.91-1-12.49,41.25-80.82,49-95.71a.1.1,0,0,0-.17-.09c-15.12,24.2-51.07,83.63-50.21,96.15,1.17,17,63.37,67.82,77.75,79C753.77,377,754.28,376.56,753.92,376.28Z"/><path class="cls-25" d="M479.2,495.17c3.09,1,91.56.77,94.92-1.37,1.29-.81,2-13.72,2.42-29.33.09-3.38,36-57.74,36-57.74H551.73l-26.67,47.34-5.56,10.4s-33.82,15.27-37.27,18S476.1,494.14,479.2,495.17Z"/><path class="cls-26" d="M479.2,495.17c3.09,1,91.56.77,94.92-1.37,1.26-.8,1.92-13.22,2.39-28.42,0-.91,4.37-7.92,6-11.31H525.06l-5.56,10.4s-33.82,15.27-37.27,18S476.1,494.14,479.2,495.17Z"/><path class="cls-11" d="M479.2,495.17c3.09,1,91.56.77,94.92-1.37,1.29-.81,2-13.72,2.42-29.33h-57s-33.82,15.27-37.27,18S476.1,494.14,479.2,495.17Z"/><path class="cls-20" d="M480.45,491.62c14.83-.4,74.68-.65,89.37.08.12,0,.12.09,0,.09-14.69.73-74.54.48-89.37.08C480.14,491.86,480.14,491.63,480.45,491.62Z"/><path class="cls-20" d="M487.92,479.28a11.94,11.94,0,0,1,8.88,3.6,11.53,11.53,0,0,1,3.33,7.92c0,.09-.16.09-.17,0a13.77,13.77,0,0,0-12-11.33A.1.1,0,0,1,487.92,479.28Z"/><path class="cls-20" d="M513.75,466c5.94-.1,12.83,2,16.53,6.83.14.19-.12.39-.3.3a82.17,82.17,0,0,0-16.33-6.4A.37.37,0,0,1,513.75,466Z"/><path class="cls-20" d="M509.18,467.76c5.93-.1,12.82,2,16.52,6.83.15.19-.12.39-.3.3a82.69,82.69,0,0,0-16.32-6.4A.37.37,0,0,1,509.18,467.76Z"/><path class="cls-20" d="M504.6,469.57c5.94-.1,12.82,2,16.53,6.82.14.19-.13.39-.31.3a82,82,0,0,0-16.32-6.39A.37.37,0,0,1,504.6,469.57Z"/><path class="cls-20" d="M500,471.37c5.94-.1,12.83,2,16.53,6.83.14.18-.13.39-.3.3a81.57,81.57,0,0,0-16.33-6.4A.37.37,0,0,1,500,471.37Z"/><path class="cls-20" d="M566,477.6c6.66,0,6.67,10.37,0,10.37S559.33,477.6,566,477.6Z"/><path class="cls-20" d="M507.79,458.83c3.22,4.13,8.11,6.72,12.34,9.63a.72.72,0,0,0,1.07-.48.15.15,0,0,0,.18-.17,31.15,31.15,0,0,0-5.44-15.18c-1.86-2.59-5.65-5-8.65-2.51C504.46,452.49,505.92,456.42,507.79,458.83Zm-.29-4.92c.58-6.47,6.42-1.52,7.71.44a33.63,33.63,0,0,1,2.18,4,92.7,92.7,0,0,1,3.37,8.8c-2-1.56-4.1-2.94-6.15-4.42C512.17,461,507.19,457.47,507.5,453.91Z"/><path class="cls-20" d="M542.45,464c-.48-3.88-4.9-4.71-8-4.1a31.21,31.21,0,0,0-14.34,7.36.15.15,0,0,0,0,.25.73.73,0,0,0,.44,1.08c5.08.77,10.42,2.23,15.58,1.42C539.15,469.5,542.9,467.63,542.45,464Zm-14,4.19c-2.51-.32-5-.77-7.51-1a91.81,91.81,0,0,1,8.47-4.11,33.11,33.11,0,0,1,4.32-1.43c2.29-.54,9.93-.15,5.93,5C537.5,469.4,531.48,468.53,528.5,468.15Z"/><rect class="cls-28" x="673.34" y="253.41" width="92.71" height="19.23"/><polygon class="cls-29" points="698.22 272.49 695.62 288.88 663.58 491.1 654.41 491.1 679.7 288.88 681.76 272.49 698.22 272.49"/><polygon class="cls-30" points="784.99 491.1 775.81 491.1 743.76 288.88 741.16 272.49 757.63 272.49 759.68 288.88 784.99 491.1"/><rect class="cls-30" x="667.26" y="427.24" width="102.26" height="5.77"/><polygon class="cls-20" points="679.7 288.01 695.62 288.01 698.22 272.49 681.76 272.49 679.7 288.01"/><polygon class="cls-20" points="759.68 288.01 743.76 288.01 741.16 272.49 757.63 272.49 759.68 288.01"/><path class="cls-31" d="M514.1,448h80.77S700.75,280.72,717.13,265.5c26.88-24.95,35.76-39.73,19.33-70.9L672.18,198s3.23,24.25,2.58,25.07C649.5,255.09,514.1,448,514.1,448Z"/><path class="cls-20" d="M529.28,437.42c12.86-.63,61.27-.67,65.52,0a.1.1,0,0,1,0,.19c-4.25.7-33.66,1.39-65.52,0A.14.14,0,0,1,529.28,437.42Z"/><path class="cls-20" d="M670.53,198.75c.79,6.3,1,17.11,4.7,17.11s2.41-13.18,2.37-16.22c0-2.76.93-2.42,1.18.82.68,8.79.82,16.57-3.88,16.42s-5.27-13.79-5.3-16.92C669.58,198.35,670.28,196.76,670.53,198.75Z"/><path class="cls-20" d="M675,216.29a28.74,28.74,0,0,1,.57,3.7,7.91,7.91,0,0,1,0,2.95c0,.19-.3.16-.38,0a10.28,10.28,0,0,1-.73-3c-.2-1.15-.44-2.3-.61-3.46A.59.59,0,0,1,675,216.29Z"/><path class="cls-20" d="M675,221.91c-9.94,14.08-20.7,28.38-30.54,42.54-4.9,7-25.53,33.73-29.44,40.76-.16.27.33.46.49.21,4.51-6.9,25.82-33.61,30.74-40.65,9.74-13.95,19.71-27.84,29.36-41.85C675.91,222.4,675.31,221.41,675,221.91Z"/><path class="cls-20" d="M732.71,197.7c-.06-.15-.31-.09-.26.07,3,8.46,4.33,17.5,2.27,26.36-2,8.69-7.52,15.82-12.65,22.9q-16.26,22.43-32.34,45-32.36,45.35-64,91.16-17.75,25.67-35.21,51.5c-.18.27.25.51.43.25,43-62.64,86.39-125,131-186.49,5.41-7.46,11.33-14.94,13.43-24.11C737.36,215.46,736,206.05,732.71,197.7Z"/><path class="cls-32" d="M601.79,328.11c-5.46,4.66-2.85,9.46-3.28,12.27s-5,11.65-1.51,13.16,9.7-11.65,14-13.6,12.93,0,15.73-7.12-5-10.78-6.25-16.51-4.11-7.23-7.6-3.67S606,324.48,601.79,328.11Z"/><path class="cls-32" d="M632.29,321.32c-.68,3.11,5.66,1.47,5.23-1.23S632.77,319.1,632.29,321.32Z"/><path class="cls-32" d="M627.35,320.09c.54,1.21,3.75-.65,2.73-2.32S626.5,318.2,627.35,320.09Z"/><path class="cls-18" d="M686.66,263c-7.85,2-13.57,8.28-10.35,10.66S685.66,274,689,278s7.46,4.05,9.26-3.72S694,261.17,686.66,263Z"/><path class="cls-18" d="M674.16,281.89c-1.27,5.05,8.48,3.44,7.61.4S675,278.43,674.16,281.89Z"/><path class="cls-11" d="M739.61,199.76c-1.48,1.49-16.92,15.44-36.92,17.23-1,.1-2,.17-2.9.24-18.35,1.3-30.26-1.16-33.3-3.16-3.21-2.08-4-57-4.29-66.51s3.89-21.38,5.92-22.23,15.88-5.52,20.66-4.08a39.59,39.59,0,0,1,5.37,2c10.09,4.66,18.35,13.2,23.6,21.76C723.9,155.08,741.09,198.27,739.61,199.76Z"/><path class="cls-20" d="M665.44,131.44a.21.21,0,0,1,.41-.12c1.08,3.27,1.85,7.06,5.14,8.85,3.63,2,7.72-.88,10.37-3.28,4.14-3.74,6.61-8.84,8.28-14.08a.16.16,0,0,1,.31.08c-1.67,6.84-5.47,13.78-11.79,17.33C671,144.23,666.53,138.18,665.44,131.44Z"/><path class="cls-20" d="M739.61,199.76c-1.48,1.49-16.92,15.44-36.92,17.23-1,.1-2,.17-2.9.24l-5.64-93.93c10.09,4.66,18.35,13.2,23.6,21.76C723.9,155.08,741.09,198.27,739.61,199.76Z"/><path class="cls-31" d="M665,213.69c-.6-1.22-3.24-61.31-2.61-70.28s1-15,1.47-16.19,3.82-3.61,4.57-2.88-.57,23.49.29,25.86S684.94,149,686,148.26s-.36-26.46.57-27.57,3.27-1.33,4-.43c1.24,1.51,3.72,30.27,5.44,35.12s13.8,15.89,20.58,17a51.93,51.93,0,0,0,15.85,0c1.74-.45,11.6,30.75,12.26,45.22S669,222,665,213.69Z"/><path class="cls-20" d="M666.35,160.52c.15,3.2.22,15.26,1.41,16.64,1.47,1.69,9.8,2.67,11.91,2.66,2.35,0,11.58-4,13.08-6.35.87-1.34-.67-14.43-2.32-15.95-.93-.86-2.08-.41-3.44-.27-4.54.46-19.57,1.77-20.6,3.12-.22.3.28.59.51.29,1-1.36,17-2.54,20.78-2.89,1.29-.12,1.61-.32,2.34.39s3.51,13.17,1.8,15.24c-2,2.36-8.83,4.82-11.68,5.51-1.92.47-11-1.8-11.49-2.21a3.57,3.57,0,0,1-.81-1.94c0-.07,0-.14,0-.21-.31-1.58-.72-11-.86-14C666.92,160.14,666.34,160.14,666.35,160.52Z"/><path class="cls-11" d="M701.93,177.41c-2-2.19-7.93-3.94-10.72-.39s2.34,7.24,2,8.92-4,1.83-4.34,4,1,3.3,1.9,4.52.55,6.31,5.19,7.21,6.11-5.12,8.4-6.75,7.72-3.14,7.15-7-7.31-2.28-8.16-4.07S704.15,179.85,701.93,177.41Z"/><path class="cls-11" d="M688.94,185.25c-.48-2.16-3.77-1.14-3.34,1S689.16,186.22,688.94,185.25Z"/><path class="cls-11" d="M687.82,179.41c-1,.29-.45,2.14.73,1.9S688.62,179.18,687.82,179.41Z"/><path class="cls-25" d="M686.58,121.79c-2.05,6.37-9.62,17.7-13.53,14.8-1.75-1.29-4-6.48-6-11.82-2.47-6.6-4.48-13.45-4.48-13.45l12.92-5.88,3.9-1.78a10.62,10.62,0,0,1,1.15-.81c.47-.28.89-.46,1-.16.6,3.17,1.51,6.58,2.39,9.61C685.32,117.31,686.72,121.36,686.58,121.79Z"/><path class="cls-20" d="M680.51,102.85c-.39,16.36-9.14,20.75-13.49,21.92-2.47-6.6-4.48-13.45-4.48-13.45l12.92-5.88,3.9-1.78A10.62,10.62,0,0,1,680.51,102.85Z"/><path class="cls-25" d="M682.19,80.16c2.75,7,.64,27.92-4.07,32.93-6.83,7.27-18.82,8.87-25.2.47-6.17-8.15-2.93-35.4,2.4-40C663.18,66.69,678.13,69.86,682.19,80.16Z"/><path class="cls-33" d="M678.61,112.85s0,0,0,0"/><path class="cls-20" d="M664.83,95.26c0-.06.11.07.1.13-.18,1.41-.15,3,1.08,3.64,0,0,0,.09,0,.08C664.46,98.74,664.44,96.56,664.83,95.26Z"/><path class="cls-20" d="M666.24,93.9c2.28,0,2,4.62-.1,4.58S664.32,93.87,666.24,93.9Z"/><path class="cls-20" d="M656.17,94.57s-.11.06-.11.12c0,1.42-.32,3-1.62,3.44-.05,0-.05.08,0,.08C656,98.07,656.37,95.92,656.17,94.57Z"/><path class="cls-20" d="M655,93c-2.26-.3-2.7,4.26-.6,4.54S656.89,93.28,655,93Z"/><path class="cls-20" d="M668.16,91.92a17.74,17.74,0,0,1-1.74-.73,3,3,0,0,1-1.62-1.07A1,1,0,0,1,665,89a2.4,2.4,0,0,1,2.43-.1,3.51,3.51,0,0,1,1.94,1.63A1,1,0,0,1,668.16,91.92Z"/><path class="cls-20" d="M653.36,90.62a18.72,18.72,0,0,0,1.84-.37,3,3,0,0,0,1.81-.73,1,1,0,0,0,0-1.18,2.39,2.39,0,0,0-2.36-.59A3.46,3.46,0,0,0,652.44,89,1,1,0,0,0,653.36,90.62Z"/><path class="cls-20" d="M663.67,107.65c-.36.31-.72.75-1.23.76a3.62,3.62,0,0,1-1.5-.44c-.05,0-.1,0-.07.07a1.91,1.91,0,0,0,1.75.87,1.48,1.48,0,0,0,1.18-1.19C663.83,107.64,663.72,107.61,663.67,107.65Z"/><path class="cls-20" d="M664.07,103.68a4.78,4.78,0,0,1-3.34,2,5.91,5.91,0,0,1-1.73,0,1.63,1.63,0,0,1-.33-.05l-.31-.07a.33.33,0,0,1-.26-.33h0a.39.39,0,0,1,0-.15h0v-.12c0-1.09.23-2.74.23-2.74-.41.17-2.49,1-2.42.4.55-4.7,1.16-9.92,2.69-14.48a.13.13,0,0,1,.26,0c-.35,4.53-1.49,9-1.92,13.53a8.6,8.6,0,0,1,2.31-.56c.16,0-.44,3.19-.41,3.68a.07.07,0,0,0,0,0c1.82.34,3.23-.13,5.07-1.26C664.05,103.47,664.16,103.57,664.07,103.68Z"/><path class="cls-20" d="M659.74,105.35a5.76,5.76,0,0,0,2.32,1.73,2.69,2.69,0,0,0,1.57.07c1.12-.32,1.13-1.36.9-2.25a6,6,0,0,0-.53-1.35A7.42,7.42,0,0,1,659.74,105.35Z"/><path class="cls-34" d="M662.06,107.08a2.69,2.69,0,0,0,1.57.07c1.12-.32,1.13-1.36.9-2.25A2.67,2.67,0,0,0,662.06,107.08Z"/><path class="cls-20" d="M652.8,82.32c7,4.84,16.68-2.46,16.68-2.46a7.64,7.64,0,0,0,7.76,4.86s1.37,11.94,4.51,11.92c4.79,0,6.28-16.3,4.78-19.5s-5.57-4-5.57-4a7.87,7.87,0,0,0-3.25-4.75c-3.27-2.51-14.55.86-14.55.86a10.55,10.55,0,0,0-2.89-3.91,3,3,0,0,0-4.26.39,7,7,0,0,1,1.15,2.94c.56,3.49-2.29,3.49-2.26.32A4.87,4.87,0,0,1,656,65.71c-1.4-2.08-3.7-2.75-5.1-1.65C648.38,66.08,647,78.3,652.8,82.32Z"/><path class="cls-25" d="M679.41,98.7s4.27-7,7.4-5.49.2,11.39-3.28,12.93a3.62,3.62,0,0,1-5-1.65Z"/><path class="cls-20" d="M685.9,96c.06,0,.07.07,0,.1-2.44,1.16-3.61,3.55-4.39,6a2,2,0,0,1,3-.73c.07,0,0,.15-.06.14a2.22,2.22,0,0,0-2.4.93,10.48,10.48,0,0,0-1.06,2c-.1.23-.51.14-.44-.13,0,0,0,0,0-.06C680.3,101.16,682.51,96.56,685.9,96Z"/><path class="cls-25" d="M702.07,125.24c22.87,19.39,48.41,55.17,42.62,75.86-4.39,15.74-45.81,31.33-55.21,35.74-4.1,1.91-18.44-24.6-16.55-29.06s37.32-21.12,39.68-23.86-4.56-19.79-17.19-46.63C687.92,121.36,696.43,120.46,702.07,125.24Z"/><path class="cls-25" d="M690.26,236.47c-12.27,5.6-36,3.63-39,2.37a6.15,6.15,0,0,1-3.38-2.76c-4.75-1.81-5.81-4.63-5.81-4.63s-6.11-.48-6.43-4.22c-.38-4.2,8.29-2.66,13.52-4.79,1.49-.61,5-2.41,7.62-3.86h0l.16-.09a16.36,16.36,0,0,0,2.68-1.75l0,0c5.94-4,14.55-10.48,17.6-12.5Z"/><path class="cls-20" d="M665.26,226.3a82.57,82.57,0,0,1-10.78,3.59,83,83,0,0,1-12.37,1.45.11.11,0,0,0,0,.21,44.19,44.19,0,0,0,23.27-4.94C665.55,226.52,665.44,226.23,665.26,226.3Z"/><path class="cls-20" d="M670.78,232.42A66.93,66.93,0,0,1,647.83,236a0,0,0,0,0,0,.07c7.5,1.14,16.1-.41,23.06-3.24C671.1,232.7,671,232.35,670.78,232.42Z"/><path class="cls-11" d="M655.58,205c-22.07-4.84-84.17,2.87-83.47,17.8.83,17.8,97,10.76,96.28-1.26-.42-6.69-22.59-4.27-22.77-8.17C645.48,210.38,663.39,206.73,655.58,205Z"/><path class="cls-12" d="M637.76,220.75a6.24,6.24,0,0,0-3.42,2,2.29,2.29,0,0,0,.63,3.61c2.88,1.6,10.11.81,10.62-3.34C646.05,219.21,641,219.68,637.76,220.75Z"/><path class="cls-32" d="M621,227.18l.39-.19a5.22,5.22,0,0,0,1.2-.69,2.81,2.81,0,0,0,.83-1.09,1.3,1.3,0,0,0,.17-.87,2.19,2.19,0,0,0-1.48-1.91c-1.26-.56-2.72-.33-4.07-.46-2-.18-3.44-1.26-5.48-1-2.24.34-4.8,1.7-5.13,3.78C606.54,230.31,618,228.47,621,227.18Z"/><path class="cls-35" d="M635.82,211.13c-.63,2.07-2.84,2.2-4.67,2.26s-3.64.13-5.47.15c-1.07,0-2.48.21-3.42-.5l-.17-.17a1.66,1.66,0,0,1-.92-1.8c.17-1.62,1.78-2.16,3.27-2.57A10.86,10.86,0,0,1,626,208c2.42-.83,5.13-2.22,7.67-1.06A3.54,3.54,0,0,1,635.82,211.13Z"/><path class="cls-18" d="M612.22,209.94c2.39,2.58-1.62,5-3.8,5.38-2,.33-8.41,1.12-8.32-2.28,0-2,2.18-2.87,4.26-3.07C607,208.87,610.58,208.17,612.22,209.94Z"/><path class="cls-36" d="M583.05,218.53c-2.42,3.22,1.33,6.38,4.36,6.76a29.81,29.81,0,0,0,7.12-.29c1.5-.21,3.07-.9,3.33-2.58.48-3.26-2.78-4.31-5.76-4.58C588.87,216.64,585,216,583.05,218.53Z"/><path class="cls-25" d="M659.61,216.7c1.19-1.37.48-2-2.68-1.4s-15.2,5.71-16.62,1.36,15.65-11.3,21-11.91,15.9-.55,15.9-.55C674.16,206.22,665.55,212.66,659.61,216.7Z"/><path class="cls-11" d="M706,170.28c1.41,1,27.58-10.8,28.45-12.31s-17.3-23.2-29.91-32.26S690,123.54,693.14,136.6C696.9,152.09,702.89,168.06,706,170.28Z"/><path class="cls-20" d="M703.86,165.5c5.16-2.94,25.52-11.9,27.59-12,0,0,.12.15.08.17-4.69,2.24-14.32,7.14-27.56,12.12C703.89,165.78,703.79,165.54,703.86,165.5Z"/><rect class="cls-31" x="242.4" y="247.81" width="92.71" height="19.23"/><polygon class="cls-31" points="267.28 266.88 264.68 283.28 232.64 472.55 223.47 472.55 248.76 283.28 250.82 266.88 267.28 266.88"/><polygon class="cls-31" points="354.05 472.55 344.87 472.55 312.83 283.28 310.23 266.88 326.69 266.88 328.75 283.28 354.05 472.55"/><rect class="cls-37" x="236.32" y="408.69" width="102.26" height="5.77"/><polygon class="cls-20" points="248.76 282.41 264.68 282.41 267.28 266.88 250.82 266.88 248.76 282.41"/><polygon class="cls-20" points="328.75 282.41 312.83 282.41 310.23 266.88 326.69 266.88 328.75 282.41"/><path class="cls-38" d="M304.62,149.81c-16.16,15.84-18.87,40.34-15.46,61.81.09.49.84.35.84-.1,0-4.89-.15-9.73-.14-14.56l.26-.65c4.21-3.07,8.09-6.54,10.49-11.29,2.7-5.32,3.76-11.31,5.83-16.86.19-.53-.38-.38-.75-.1-9.83,7.25-13,15.07-15.78,25.5a86.32,86.32,0,0,1,1.71-16.25c2.12-9.91,6.32-19.72,13.43-27.08A.3.3,0,0,0,304.62,149.81Z"/><path class="cls-39" d="M307.66,151.65c2.78.1,4.52,4.55,6.69,5.84a2.07,2.07,0,0,0,3.06-.48c2.15-3-.79-6.7-3.56-8.77,2,.81,3.62,2.25,5.76,2.65a2,2,0,0,0,2.6-1.55c.94-4.1-4.19-5.92-7.7-6,1.7-1.19,6.59-4.41,4-6s-8.36,3-10.23,4.54c-2.75,2.23-6,5.57-6.15,9.06C302,155,305.52,152.51,307.66,151.65Z"/><path class="cls-12" d="M306.85,152.34c3.56-1.62,10.39.71,11-.64,1.17-2.74-4.28-4.62-7.23-5,2.71-.74,7.91-1.91,7.75-4.53-.19-3.2-8-.45-11.9,2.57-5,3.81-4.93,7.48-4.11,8.22C303.45,154,306.27,152.61,306.85,152.34Z"/><path class="cls-40" d="M272.45,150.43c16.75,15.21,20.39,39.6,17.8,61.18-.07.49-.83.38-.84-.08-.19-4.88-.23-9.72-.42-14.55-.1-.21-.18-.42-.28-.64-4.33-2.9-8.34-6.22-10.92-10.88-2.9-5.21-4.18-11.16-6.46-16.63-.21-.52.36-.39.74-.13,10.1,6.88,13.53,14.57,16.74,24.89a87.06,87.06,0,0,0-2.32-16.18C284,167.6,279.42,158,272,150.87A.3.3,0,0,1,272.45,150.43Z"/><path class="cls-41" d="M269.48,152.39c-2.77.2-4.34,4.71-6.46,6.09a2.08,2.08,0,0,1-3.08-.37c-2.26-2.91.54-6.72,3.23-8.9-1.95.89-3.54,2.39-5.65,2.87a2,2,0,0,1-2.66-1.46c-1.1-4.05,3.95-6.06,7.46-6.28-1.74-1.12-6.75-4.16-4.22-5.84s8.47,2.7,10.4,4.14c2.83,2.13,6.23,5.34,6.49,8.82C275.3,155.53,271.65,153.16,269.48,152.39Z"/><path class="cls-12" d="M270.31,153c-3.61-1.48-10.34,1.11-11-.22-1.29-2.69,4.1-4.78,7-5.25-2.73-.64-8-1.61-7.91-4.23.07-3.21,7.95-.75,12,2.12,5.1,3.61,5.21,7.28,4.42,8C273.77,154.56,270.91,153.29,270.31,153Z"/><path class="cls-42" d="M282.77,190.61a165.91,165.91,0,0,0,5.2,24,.6.6,0,0,0,1.17-.23c-1.1-7.42-3.1-14.69-4.2-22.11a111.18,111.18,0,0,1-1.29-22.69c.7-12.49,4.09-25.78,12.23-35.55.18-.23-.2-.56-.38-.35-16.3,19-13.71,42.36-13.69,44.45-2.31-7.88-4.69-16.9-13.41-24.93-.38-.34-.67-.18-.61.41,1.56,14.61,5.62,22.24,14.07,30.05Q282.22,187.19,282.77,190.61Z"/><path class="cls-43" d="M296,136.27c2.93-1.31,7,2.43,9.87,2.69,1.54.13,2.68-.47,2.94-2.05.72-4.2-4.19-6.55-8.11-7.31,2.47-.15,4.89.51,7.31-.14a2.33,2.33,0,0,0,1.92-2.93c-1.08-4.72-7.31-4-11-2.34,1.17-2.09,4.61-7.9,1.13-8.24s-7.16,7.35-8.34,9.87c-1.73,3.7-3.45,8.81-1.82,12.5C291.81,142.63,294.24,138.23,296,136.27Z"/><path class="cls-12" d="M295.54,137.38c2.87-3.47,11.13-4.49,11-6.18-.15-3.44-6.76-2.64-10-1.53,2.45-2.14,7.25-6,5.77-8.61-1.81-3.22-8.5,3.55-11.06,8.67-3.23,6.45-1.36,10.25-.13,10.6C292.84,140.81,295.06,138,295.54,137.38Z"/><path class="cls-11" d="M274.23,192.82l-7.19,55h43.74c-.9-4.87-9-55.06-9-55.06Z"/><path class="cls-11" d="M419.44,388.31s4.43,14.79,9.7,29.91,9.93,49.83,9,50.73-12.67-32.85-16-48.28-5.79-31.24-5.79-31.24Z"/><polygon class="cls-21" points="419.52 387.93 423.03 397.99 417.44 399.35 415.76 388.99 419.52 387.93"/><path class="cls-20" d="M419.52,387.93a8.37,8.37,0,0,0-1.33-7.55c-2.44-3.49-1.73-6.21-1.73-6.21s-6.29,8.07-.7,14.82Z"/><path class="cls-44" d="M416.52,373.77c.32.51-.33,3.05.84,5s-4.59,4.95-4.12,2C413.78,377.38,415.93,372.83,416.52,373.77Z"/><path class="cls-12" d="M447,397s-4.28,12-9.26,24.18-10.32,40.55-9.56,41.33,11.83-26.47,15.27-39S449.57,398,449.57,398Z"/><polygon class="cls-21" points="446.97 396.66 443.64 404.77 448.18 406.13 450.01 397.69 446.97 396.66"/><path class="cls-20" d="M447,396.66c.48-6.68,5.77-12.12,5.77-12.12s2.16,7.84-2.73,13.15Z"/><path class="cls-45" d="M433.84,381.26s1.69,12.61,4,25.59,1.64,41.81.73,42.42-6.05-28.37-6.8-41.35-.67-26.16-.67-26.16Z"/><polygon class="cls-21" points="433.94 380.97 435.5 389.6 430.78 389.98 430.75 381.34 433.94 380.97"/><path class="cls-20" d="M430.75,381.34s3-.3,3.19-.37a73.54,73.54,0,0,0,2.25-9c-.19-.24-10.19,1.16-10.13,2.1S430.75,381.34,430.75,381.34Z"/><rect class="cls-46" x="414.05" y="429.02" width="35.24" height="44.44" rx="5.13"/><rect class="cls-47" x="418.5" y="422.01" width="26.35" height="7.01"/><path class="cls-20" d="M420.11,428.87c6.13-.3,21.12-.32,23.15,0,0,0,0,.08,0,.09a161.93,161.93,0,0,1-23.15,0C420,429,420,428.87,420.11,428.87Z"/><path class="cls-11" d="M845.84,301.39c1.5,6.4,3.09,12.69,3.39,19.25-.17.32-.14,1.51.06,1.19,0,1.05,1.64.86,1.64-.18,0-.68,0-1.36-.06-2,3.75-4.67,9.2-7.63,13.61-11.69a25.42,25.42,0,0,0,7.46-11.89c3.66-12.62.23-26,4.63-38.57,3.79-10.85,10.59-20.28,16.34-30.11,6.07-10.4,10.56-21.32,11-33.5.36-9.33-.75-21.75-7.84-28.73-7.52-7.42-16.83-1.86-22.59,4.75-16.69,19.18-24.41,43.41-27.54,68.2-1.72,13.71-3.5,27.51-3.09,41.36A111.08,111.08,0,0,0,845.84,301.39Z"/><path class="cls-20" d="M849.16,325.67a236.58,236.58,0,0,1,.46-38.85c0-.05-.06-.08-.06-.14-.21-10.51-1-21-.64-31.49a187.45,187.45,0,0,1,4.62-33.76c0-.13.23-.1.21,0a219.19,219.19,0,0,0-3.65,33q-.33,8.91.14,17.8c.1,1.93.28,3.88.41,5.82h0a207.87,207.87,0,0,1,31.21-82.7c.21-.34.82,0,.6.37a216.54,216.54,0,0,0-25.4,61.32c8-14.89,20.15-27.13,29.14-41.44,0-.08.18,0,.14.08-8.08,15.93-21.43,28.49-29.93,44.18-1.48,6.4-2.69,12.85-3.59,19.35a217.88,217.88,0,0,0-1.93,26.88c4.89-9.15,10-17.91,14-27.58.11-.26.47-.08.39.17-3.4,10.06-8,20.88-14.38,29.46,0,6.36.16,12.72.53,19.08,1,17,3.89,33.7,5.23,50.61a.39.39,0,0,1-.78.08A391.08,391.08,0,0,1,849.16,325.67Z"/><path class="cls-20" d="M867.15,194.84c.05-.12.23,0,.19.09-3.09,8.57-4.84,17.25-7.08,26a.32.32,0,0,1-.64-.1C860.53,212,863.71,203.06,867.15,194.84Z"/><path class="cls-11" d="M788.58,230.76a129.14,129.14,0,0,0,7.11,14.64c5.58,10.13,11.39,19.41,12.44,31.21.47,5.27.64,10.56,2.24,15.64a46.78,46.78,0,0,0,6.22,12.24c6,8.81,13.59,16.4,19.19,25.54a107.68,107.68,0,0,1,12.74,30.78c.14.59,1.07.43.94-.16a.37.37,0,0,1,0-.14.27.27,0,0,0,.06-.12c.88-25.3-1.13-50.8-8.84-75a260.25,260.25,0,0,0-12.24-31.21c-4.13-8.79-9.28-17.24-16.52-23.8-4.7-4.24-14.9-12.28-21.59-8C787.07,224.37,787.31,227.6,788.58,230.76Z"/><path class="cls-20" d="M814,288.11a207.38,207.38,0,0,0,14.68,21.13c2.44,3.2,4.92,6.37,7.37,9.57,1.15,1.51,2.44,3,3.5,4.65-.67-2.67-1.32-5.33-2-8-3.26-12.78-6.4-25.67-11.25-38-4.75-12-11.06-23.3-17.54-34.44-.17-.29.3-.5.47-.22,5.34,8.79,10.76,17.57,15.25,26.84a144.19,144.19,0,0,1,6.47,15.92,246,246,0,0,0-8.62-34c0-.1.11-.17.15-.07a116.25,116.25,0,0,1,8.94,35.39s0,0,0,.06q1.64,4.92,3,9.94c4,14.15,7.47,28.46,10.71,42.81a153.52,153.52,0,0,0-2.44-28.13.17.17,0,0,1,.33-.06,89.25,89.25,0,0,1,2.44,29.66q1.85,8.18,3.58,16.38c2.49,11.66,5.54,23.53,7,35.37a.24.24,0,0,1-.47.08c-1.73-6.38-2.78-13-4.19-19.46s-2.89-12.95-4.4-19.41c-2.19-9.42-4.49-18.8-6.83-28.18-1.56-3.44-4.59-6.49-6.86-9.38-2.48-3.16-5-6.32-7.39-9.54a142.4,142.4,0,0,1-12.16-18.84C813.67,288.07,813.89,288,814,288.11Z"/><path class="cls-20" d="M812.89,277.29a132.26,132.26,0,0,1,14.37,22.86c0,.1-.11.21-.18.11-4.83-7.59-9.59-15.24-14.41-22.83C812.59,277.3,812.8,277.17,812.89,277.29Z"/><path class="cls-11" d="M920.43,254.74c-3.27,5.65-7,12.43-5.6,19.21.89,4.29,4,7.77,4.59,12.15,1.27,9.66-8.35,16-15.31,20.62-17.34,11.39-41.13,21.55-44.29,44.83-.12.82-1.54.62-1.44-.19a.42.42,0,0,1,0-.15s-.09-.07-.09-.14a89.21,89.21,0,0,1,.33-35.55c2.58-12,7.81-22.78,14-33.32,10.44-17.83,21.5-36.09,37.28-49.76,4.37-3.77,13.32-10.57,16.8-2C930.1,238.69,924.44,247.86,920.43,254.74Z"/><path class="cls-20" d="M904.55,292.55C893.05,305,874.77,312,864.87,326c5.87-21.41,15.57-40.66,30.5-57.38a.45.45,0,0,0-.64-.63,113.3,113.3,0,0,0-24.92,36.15,162.75,162.75,0,0,1,10.73-27.49.3.3,0,0,0-.51-.3,104.85,104.85,0,0,0-11.56,30.9c-13.05,31.63-14.26,68.71-11.52,102,0,.47.76.49.75,0-.75-26.27-.33-53,6-78.65.13-.54.27-1.06.41-1.6,10.77-15,29-22,40.68-36.28C904.87,292.62,904.68,292.42,904.55,292.55Z"/><path class="cls-20" d="M907.22,281.85c-6,5.54-12,11.22-18,16.76-.06.05,0,.16.09.11a88.17,88.17,0,0,0,18.3-16.51A.25.25,0,0,0,907.22,281.85Z"/><path class="cls-20" d="M908.17,257.81a189.94,189.94,0,0,1-18.06,24.89.11.11,0,0,0,.15.15A87.65,87.65,0,0,0,908.5,258,.19.19,0,0,0,908.17,257.81Z"/><path class="cls-31" d="M878.5,374.28c-2.46,29.9-6.87,75.9-9.18,78.46H836.77c-2.31-2.56-6.71-48.56-9.17-78.46-1.13-13.93-1.86-24.35-1.76-25.31h54.42C880.36,349.93,879.64,360.35,878.5,374.28Z"/><path class="cls-20" d="M878.5,374.28H827.6c-1.13-13.93-1.86-24.35-1.76-25.31h54.42C880.36,349.93,879.64,360.35,878.5,374.28Z"/><rect class="cls-48" x="820.68" y="342.69" width="64.75" height="18.49"/><path class="cls-11" d="M745.39,498s-12.44-2.57-25.2-5.81-41.54-4.57-42.21-3.7,27.83,8,40.71,9.69,26,2.51,26,2.51Z"/><polygon class="cls-21" points="745.69 497.9 737.2 495.74 736.49 500.43 745.1 501.07 745.69 497.9"/><path class="cls-20" d="M745.69,497.9c6.67-.45,12.79,4,12.79,4s-7.45,3.23-13.38-.87Z"/><path class="cls-12" d="M741,493.77s-12.58,1.75-25.53,4.13-41.75,1.82-42.36.91,28.3-6.18,41.26-7,26.12-.78,26.12-.78Z"/><polygon class="cls-21" points="741.27 493.88 732.65 495.48 732.25 490.75 740.88 490.69 741.27 493.88"/><path class="cls-20" d="M740.88,490.68s.32,3,.39,3.2a73.29,73.29,0,0,0,9,2.21c.24-.19-1.2-10.19-2.14-10.13S740.88,490.68,740.88,490.68Z"/></g></g></svg>