<?xml version="1.0" encoding="utf-8"?>
<!-- Generator: Adobe Illustrator 26.2.1, SVG Export Plug-In . SVG Version: 6.00 Build 0)  -->
<svg version="1.1" id="Layer_1" xmlns="http://www.w3.org/2000/svg" xmlns:xlink="http://www.w3.org/1999/xlink" x="0px" y="0px"
	 viewBox="0 0 944 944" style="enable-background:new 0 0 944 944;" xml:space="preserve">
<style type="text/css">
	.st0{fill:#008169;}
	.st1{fill:#1F1E1C;}
	.st2{fill:#52E7FF;}
	.st3{fill:#FFD24A;}
</style>
<g>
	<path class="st0" d="M646.8,909.1c53.6,0,97.1-43.5,97.1-97.1c0,0,0,0,0-0.1v-505c0-150.2-121.7-271.9-271.9-271.9
		S200,156.7,200,306.9v505c0,53.7,43.5,97.1,97.1,97.1H646.8z"/>
	<path class="st1" d="M646.8,926.2H297.2C234.1,926.1,183,875,182.9,811.9v-505c4.9-159.6,138.2-285,297.8-280.1
		c152.7,4.7,275.4,127.4,280.1,280.1v505c-0.1,63.1-51.2,114.2-114.2,114.3 M472,52.1c-140.6,0.2-254.6,114.2-254.8,254.8v505
		c0,44.2,35.8,80,80,80h349.6c44.1-0.1,79.9-35.9,79.9-80v-505C726.6,166.2,612.6,52.2,472,52.1"/>
	<path class="st2" d="M472,578.8c150.2,0,271.9-121.7,271.9-271.9S622.2,34.9,472,34.9S200,156.7,200,306.9v271L472,578.8z"/>
	<path class="st1" d="M472,595.9L472,595.9l-289-1v-288C183,147.2,312.4,17.8,472,17.8s289.1,129.4,289.1,289.1
		S631.7,595.9,472,595.9C472,595.9,472,595.9,472,595.9 M217.2,560.8l254.9,0.9c140.7,0,254.8-114.1,254.7-254.9
		c0-140.7-114.1-254.8-254.9-254.7c-140.7,0-254.7,114.1-254.7,254.8V560.8z"/>
	<path class="st3" d="M535.1,42.5c-20.7-5-41.9-7.5-63.2-7.5C322,35.4,200.5,156.9,200,306.9v505c0,53.7,43.5,97.1,97.1,97.1h29.1
		V306.9C326.7,181.2,412.9,72,535.1,42.5"/>
	<path class="st1" d="M326.3,926.2h-29.1C234.1,926.1,183,875,182.9,811.9v-505C182.7,147.4,311.7,18,471.2,17.8
		c22.9,0,45.7,2.7,68,8c9.2,2.2,14.9,11.5,12.6,20.7c-1.5,6.3-6.4,11.1-12.6,12.6C425,87.3,344.4,189.3,343.4,306.9v602.2
		C343.4,918.5,335.7,926.2,326.3,926.2L326.3,926.2 M462.2,52.3c-136.6,5.6-244.6,117.9-244.7,254.6v505c0,44.2,35.8,80,80,80h12
		V306.9c0.2-65.5,22.5-129,63.4-180.1c24.5-30.7,54.9-56.1,89.5-74.8"/>
</g>
</svg>
